<?xml version="1.0" encoding="UTF-8"?>
<!DOCTYPE svg PUBLIC "-//W3C//DTD SVG 1.1//EN" "http://www.w3.org/Graphics/SVG/1.1/DTD/svg11.dtd"[]>
<!-- Creator: CorelDRAW 2018 (64-Bit) -->
<svg xmlns="http://www.w3.org/2000/svg" xml:space="preserve" width="210mm" height="297mm" version="1.1" style="shape-rendering:geometricPrecision; text-rendering:geometricPrecision; image-rendering:optimizeQuality; fill-rule:evenodd; clip-rule:evenodd" viewBox="0 0 21000 29700" xmlns:xlink="http://www.w3.org/1999/xlink" xmlns:rdf="http://www.w3.org/1999/02/22-rdf-syntax-ns#" xmlns:cc="http://web.resource.org/cc/" xmlns:dc="http://purl.org/dc/elements/1.1/" xmlns:svg="http://www.w3.org/2000/svg" xmlns:inkscape="http://www.inkscape.org/namespaces/inkscape" xmlns:sodipodi="http://sodipodi.sourceforge.net/DTD/sodipodi-0.dtd" xmlns:ns1="http://sozi.baierouge.fr">
 <defs>
  <style type="text/css">
   <![CDATA[
    .str0 {stroke:black;stroke-width:2.04;stroke-miterlimit:22.9256}
    .fil3 {fill:none}
    .fil0 {fill:black}
    .fil1 {fill:#61A121}
    .fil2 {fill:#FFD03F}
   ]]>
  </style>
 </defs>
 <g id="Layer_x0020_1">
  <metadata id="CorelCorpID_0Corel-Layer" />
  <path id="path5" class="fil0 str0" d="M4851.13 10461.8c-238.49,-69.08 -421.94,-140.42 -580.93,-221.96 -161.03,-87.76 -309.83,-187.42 -352.64,-261.02 -48.92,-71.34 -12.23,-126.27 87.65,-164.77 -234.41,-67.38 -462.71,-198.17 -693.04,-399.75 -230.33,-207.8 -546.28,-617.74 -680.81,-813.08 -138.61,-199.87 -142.69,-295.56 -138.61,-373.13 4.08,-81.53 46.88,-118.34 150.84,-110.41 -256.83,-397.48 -434.17,-700.97 -554.43,-949.65 -116.19,-246.64 -140.65,-413.79 -152.88,-509.59 -20.38,-93.76 -14.27,-124.34 26.5,-69.3 -114.15,-275.18 -187.53,-501.44 -228.3,-703.23 -48.92,-205.87 -57.07,-381.17 -24.46,-495.32 30.58,-114.15 105.99,-181.41 226.26,-193.64 -40.77,-163.07 -85.61,-370.98 -112.11,-631.89 -36.69,-271.1 -83.57,-717.5 -77.46,-937.65 2.04,-216.07 38.73,-338.37 101.92,-358.75 -44.84,-234.41 -59.11,-411.75 -50.96,-523.86 6.12,-118.23 42.81,-173.26 101.92,-165.11l24.46 -550.36c222.18,-14.27 391.37,2.04 529.97,26.5 134.53,30.58 224.22,69.3 277.22,138.61 16.31,-63.19 57.07,-97.84 114.15,-95.8 57.07,0 118.23,34.65 238.49,95.8 120.26,53 305.75,136.57 454.55,234.41 144.72,91.73 264.99,214.03 391.37,344.48 8.15,-50.96 26.5,-87.65 63.19,-110.07 30.58,-28.54 38.73,-59.11 150.84,-28.54 114.15,32.61 370.98,132.49 517.74,220.14 138.61,81.53 199.76,207.91 315.95,277.22 110.07,57.07 230.33,28.54 352.64,110.07 112.11,81.53 256.83,283.33 340.46,385.25 79.27,101.92 132.49,163.07 150.61,205.87 14.16,-26.5 47,-16.31 90.03,14.27 42.47,22.42 85.5,69.3 174.96,179.38 85.5,114.15 238.38,373.02 340.29,509.59 97.95,126.38 175.53,191.61 240.64,289.45 61.15,99.88 93.99,195.68 114.37,303.72 48.69,-30.58 109.85,-14.27 174.96,40.77 65.68,55.04 134.76,167.15 216.29,289.45 83.8,116.19 179.49,256.83 264.99,413.79 81.53,154.92 138.72,309.83 201.57,495.32 59.45,-22.42 112.11,8.15 151.18,83.57 34.54,71.34 42.47,150.84 87.76,370.98 44.73,222.18 132.49,676.74 177.22,947.61 34.54,264.99 38.5,387.29 50.96,634.16 10.19,240.64 26.61,417.86 24.35,798.92 -10.19,373.13 -32.84,848.19 -75.31,1433.08l264.99 330.1c-61.15,-1624.46 -101.92,-2931.28 -114.37,-3982.85 -20.38,-1051.79 6.23,-1510.43 24.35,-2272.77 18.68,-770.5 39.07,-1510.43 77.57,-2282.97l717.39 0c-7.93,1002.87 -11.89,1942.56 -11.89,2865.94 -3.96,917.26 -3.96,1779.49 0,2617.37 3.96,833.46 10.19,1597.85 26.61,2340.15 268.95,-489.21 476.75,-868.57 653.97,-1146.01 163.07,-275.18 230.45,-350.49 366.91,-509.59 138.72,-164.77 287.64,-327.84 454.67,-480.71 104.18,-389.55 232.15,-735.96 377.1,-1062.1 138.72,-328.18 334.06,-640.05 493.17,-880.57 163.07,-250.72 344.82,-472.9 467.12,-564.63 112.11,-89.69 183.45,-83.57 214.03,26.5 260.46,-252.76 493.17,-456.59 704.93,-619.66 203.84,-167.15 332.37,-252.76 542.43,-358.75 210.06,-116.19 558.28,-246.64 707.2,-289.45 142.69,-40.77 183.45,-22.42 138.72,55.04 138.72,-110.07 303.49,-203.84 503.36,-289.45 197.61,-87.65 425.79,-161.03 668.7,-220.14 230.45,-61.15 523.75,-140.65 731.55,-150.84 206.1,-16.31 383.33,20.38 493.17,55.04 106.45,32.61 140.99,75.42 126.83,136.57 224.22,-61.15 468.82,-101.92 755.89,-122.3 287.64,-24.46 678.89,-26.5 946.14,-14.27 262.72,4.08 486.94,22.42 617.17,55.04 120.6,32.61 161.37,75.42 114.37,136.57 279.14,-14.27 529.97,-14.27 768.35,0 234.41,6.12 456.93,18.35 644.35,69.3 187.42,46.88 391.25,148.8 454.67,234.41 54.92,79.5 -63.42,124.34 -126.83,260.91 -75.31,136.57 -164.77,391.37 -276.88,552.4 -116.07,154.92 -232.71,283.33 -379.36,385.25 57.19,46.88 90.03,101.92 90.03,165.11 -4.53,59.11 28.31,8.15 -90.03,207.91 -130.23,199.76 -407.67,672.66 -642.08,978.41 -238.38,299.64 -482.98,564.63 -758.16,811.27 58.89,20.61 75.31,69.3 26.61,138.38 -47,65.68 -87.76,75.87 -304.06,275.18 -224.22,195.91 -754.19,711.73 -1008.99,909.34 -258.76,195.91 -425.79,271.22 -517.52,248.57 -24.35,65.11 -65.11,122.3 -99.65,179.49 -45.3,53.22 -83.8,105.88 -138.72,150.61 169.3,20.38 301.79,93.99 388.99,220.26 91.73,126.27 138.72,314.25 140.99,538.47 -3.96,214.03 -69.64,521.48 -165.33,758.16 -108.15,225.92 -254.8,393.52 -439.95,619.44 -185.72,222.52 -402.01,460.9 -656.81,715.69 203.84,130.23 379.36,293.3 542.43,497.13 159.11,202.14 315.95,475.05 415.6,701.54 100.22,219.69 147.22,391.25 163.07,606.98 12.46,212.33 -10.19,497.7 -99.65,660.77 -99.65,152.88 -319.91,261.02 -479.02,276.88 -156.84,14.72 -323.87,-52.66 -479.02,-193.64 -112.11,218.56 -224.22,379.36 -366.91,483.54 -140.42,95.69 -311.98,156.84 -466.56,136.46 -163.07,-20.38 -338.59,-40.77 -479.02,-248.57 -144.95,-210.06 -259.32,-542.43 -365.21,-1005.03 -201.57,71.34 -428.06,71.34 -694.74,0 -275.18,-81.53 -579.23,-283.67 -895.18,-440.51 -319.91,-160.8 -680.59,-350.49 -972.19,-497.13 -295.56,-151.18 -495.44,-389.55 -756.46,-385.59 -262.72,2.26 -637.55,234.41 -794.96,413.9 -158.54,173.26 -193.64,424.09 -150.61,634.16 38.5,199.87 230.45,424.09 379.36,592.82 142.69,161.37 295.56,295.56 466.56,411.64 171,110.41 413.9,195.91 554.32,289.9 138.72,97.95 301.79,195.34 253.1,276.88 -63.42,71.34 -320.48,197.61 -605.85,151.18 -299.53,-57.19 -813.08,-228.75 -1122.8,-442.78 -308.02,-214.03 -546.39,-486.94 -707.2,-811.38 -167.6,-334.06 -293.86,-815.34 -277.44,-1143.18 6.23,-330.1 144.95,-550.36 352.75,-801.19 211.76,-252.53 587.16,-489.21 896.88,-700.97 299.53,-218.56 568.48,-405.97 894.61,-579.23 318.21,-179.49 658.5,-327.84 1021.45,-468.82 -264.99,-58.89 -501.66,-126.27 -717.39,-193.64 -220.26,-81.53 -403.71,-181.19 -580.93,-220.26 -179.49,-34.54 -322.17,-40.77 -491.47,28.88 -175.53,61.15 -350.49,224.22 -542.43,370.87 -195.34,144.95 -448.44,311.98 -592.82,509.59 -146.65,189.68 -206.1,315.95 -264.99,662.47 -61.15,346.52 -85.5,919.53 -90.03,1418.93 -7.93,493.17 32.84,1002.76 50.96,1528.77 18.68,517.52 28.88,786.47 39.07,1585.39 -3.96,807.42 -28.88,2226.34 -26.61,3188.34 -3.96,951.8 10.19,1763.18 26.61,2480.57 38.5,-73.04 83.23,-134.19 126.27,-191.38 43.03,-59.45 91.73,-110.41 138.72,-152.88 -28.88,-421.83 -6.23,-881.03 75.31,-1392.31 77.57,-515.82 197.61,-1188.48 391.25,-1665.23 191.95,-489.21 544.13,-947.84 744,-1186.21 191.95,-232.71 330.1,-304.06 416.17,-206.1 126.27,-136.46 317.64,-281.41 566.21,-442.21 254.8,-165.33 656.81,-420.13 921.79,-522.05 256.49,-105.88 480.71,-99.65 617.17,-83.8 130.79,10.19 185.72,65.68 165.33,165.33 277.44,-140.42 564.51,-261.02 870.27,-344.26 309.72,-86.06 621.7,-142.69 958.03,-179.49 328.4,-49.26 770.61,-91.73 997.1,-81.53 217.99,10.19 330.1,62.85 327.84,150.61 275.18,-7.93 540.17,-7.93 794.96,0 250.83,-1.7 456.93,3.96 719.66,40.77 261.02,36.8 685.12,130.79 831.77,193.64 136.46,59.45 136.46,114.37 0,165.33 266.69,1.7 486.94,24.35 668.7,83.8 181.19,56.62 307.45,136.46 403.14,246.3 151.18,3.96 244.6,40.77 289.9,109.85 42.47,61.15 116.07,100.22 -24.91,289.9 -148.91,191.38 -432.02,464.29 -857.81,841.39 18.12,81.53 -22.65,179.49 -100.22,301.79 -89.46,120.6 -228.18,263.29 -391.25,428.06 -167.03,167.03 -346.52,340.29 -568.48,550.36 -14.72,85.5 -57.19,171.56 -112.11,248.57 -59.45,75.87 0,47 -240.64,220.26 -254.8,173.26 -941.61,611.51 -1235.47,787.03 -291.03,163.07 -334.06,150.61 -505.06,206.1 -179.49,52.66 -352.75,77 -542.43,95.69 10.19,47 -20.38,112.11 -75.31,179.49 -57.19,65.11 -91.73,122.3 -277.44,234.41 -195.34,109.85 -611.51,317.64 -870.27,428.06 -263.29,95.69 -475.05,148.91 -668.7,191.38 -193.64,49.26 -350.49,69.64 -479.02,83.8 85.5,67.38 128.53,138.72 112.11,205.53 -20.38,63.42 -40.77,122.3 -201.57,193.64 -171.56,67.38 -467.12,171.56 -768.35,234.41 -301.79,59.45 -719.66,124.57 -1008.99,124.57 -289.9,-7.93 -468.82,-75.31 -719.66,-138.72 -263.29,-69.08 -526.01,-144.38 -819.31,-248.57 -152.88,85.5 -279.71,226.48 -379.36,413.9 -112.11,185.15 -191.38,486.94 -238.38,717.39 -43.03,224.22 -30.58,142.69 -26.61,660.2 -3.96,522.05 20.38,1846.98 26.61,2442.07 1.7,589.43 1.7,941.61 0,1074.1l-794.95 -0.04c-24.35,-650.01 -39.07,-1243.4 -50.96,-1818.11 -16.42,-576.97 -22.65,-1198.67 -26.61,-1597.85 -6.23,-407.67 22.65,-576.97 -24.35,-798.92 -59.45,-218.56 -101.92,-263.29 -301.79,-519.78 -199.87,-271.22 -501.66,-621.7 -896.88,-1074.67 -83.8,67.38 -252.53,151.18 -515.82,250.83 -266.69,97.95 -741.74,257.06 -1047.66,344.82 -307.79,77 -481.05,156.84 -770.5,150.61 -293.52,-10.19 -684.89,-108.15 -970.26,-191.38 -289.45,-90.03 -613.55,-226.48 -744,-332.37 -134.53,-112.11 -148.8,-212.33 -50.96,-315.95 -252.76,-230.45 -444.36,-432.02 -605.39,-605.28 -161.03,-175.53 -295.56,-330.67 -340.41,-442.78 -48.92,-116.07 -34.65,-195.34 50.96,-246.3 -224.22,-202.14 -393.4,-417.86 -529.97,-648.31 -142.69,-240.64 -240.53,-564.51 -277.22,-744 -34.65,-185.72 -12.23,-285.37 75.42,-330.1 -216.07,-358.98 -364.87,-648.31 -454.55,-868.57 -87.65,-230.45 -73.38,-326.14 -75.42,-468.82 -8.15,-140.42 0,-264.99 24.46,-373.13 -108.03,-229.88 -187.53,-419.56 -238.49,-576.4 -53,-159.11 -57.07,-283.67 -75.42,-373.13 -20.38,-100.22 -44.84,-101.92 -50.96,-193.64 -12.23,-93.99 -16.31,-220.26 -12.23,-370.87 -144.72,-324.44 -240.53,-607.55 -303.72,-841.96 -65.23,-238.38 -165.11,-519.78 -63.19,-576.97 97.84,-57.19 313.91,7.93 656.35,220.26 120.26,-20.38 267.03,-14.16 440.29,40.77 175.3,52.66 362.83,132.49 593.16,261.02 73.38,-26.61 154.92,-16.42 252.76,14.16 91.73,28.31 173.26,93.42 315.95,179.49 140.65,85.5 307.79,183.45 517.74,317.64 22.42,-75.31 61.15,-132.49 124.34,-179.49 61.15,-46.43 138.61,-79.27 240.53,-97.39 -195.68,-183.45 -334.29,-403.71 -415.83,-677.19 -87.65,-275.18 -132.49,-650.01 -87.65,-951.8 42.81,-309.72 158.99,-690.78 340.41,-868 177.34,-179.49 523.86,-187.98 717.5,-206.1 189.57,-28.31 281.29,-2.26 417.86,54.92 134.53,53.22 252.76,144.95 377.1,275.18 16.31,-377.1 34.65,-693.04 63.19,-964.26 18.35,-272.91 44.84,-470.52 87.65,-647.75 40.88,-179.49 95.92,-320.48 165.22,-422.39l0 -0.01zm114.15 1910.4c-57.07,-246.87 -67.27,-487.51 -38.73,-744 30.58,-259.32 146.76,-620 214.03,-784.77 61.15,-165.33 99.88,-236.68 138.61,-206.1 175.3,71.34 379.14,132.49 619.61,191.38 240.64,55.49 546.39,104.18 807.42,138.72 252.53,28.88 489.21,44.73 717.39,40.77 120.04,120.6 242.34,267.25 366.91,440.51 124,171 275.18,313.68 364.64,592.82 81.53,275.18 104.18,519.78 138.72,1048.06 30.58,521.48 36.8,1070.14 50.96,2093.28 3.96,1029.37 3.96,2937.51 0,4017.84 -7.93,1063.91 -28.31,1785.27 -36.8,2354.31 -10.19,564.51 -30.58,896.88 -38.5,1020.88 -47,-138.72 -136.46,-289.33 -277.44,-468.82 -142.69,-177.22 -332.37,-374.83 -568.48,-592.82 87.76,-310.28 128.53,-636.42 138.72,-978.41 5.66,-352.75 -61.15,-797.23 -100.22,-1088.83 -48.69,-293.3 -101.92,-529.97 -150.61,-646.05 -47,-118.34 -95.69,-136.46 -138.72,-54.92 -57.19,-140.99 -160.8,-287.64 -303.49,-456.93 -151.18,-168.73 -332.37,-352.18 -566.78,-550.36 164.77,-130.23 285.37,-289.33 352.75,-454.1 61.15,-183.45 56.62,-377.1 50.96,-565.08 -8.49,-177.22 -18.68,-352.18 -77.57,-509.59 -63.42,-158.54 -156.84,-315.95 -289.33,-454.1 44.73,-81.53 117.77,-116.64 228.18,-112.11 103.62,1.7 319.91,50.96 428.06,138.16 105.88,86.06 169.3,202.14 214.03,373.13 42.47,165.33 61.15,369.17 38.5,620 -30.58,250.27 -183.45,601.32 -214.03,839.69 -38.5,225.92 -47,448.44 0,509.59 43.03,48.69 130.79,1.7 263.29,-179.49 124,-191.38 364.64,-588.86 493.17,-909.34 122.3,-321.61 214.03,-652.28 252.53,-990.3 34.54,-352.75 34.54,-754.19 -38.5,-1048.06 -81.53,-289.33 -193.64,-472.79 -416.17,-660.2 -225.92,-187.42 -525.44,-346.52 -921.23,-468.82 59.45,-254.8 67.38,-509.59 24.35,-787.03 -48.69,-283.11 -124,-670.39 -289.33,-853.85 -169.3,-179.49 -511.29,-216.29 -704.93,-220.26 -197.89,-18.12 -360.96,90.03 -481.22,151.18 -128.42,62.85 -201.8,126.27 -250.72,214.03l-0.03 -0.01zm4490.46 -2048.55c97.95,-234.41 187.42,-438.25 277.44,-620 89.46,-181.19 124,-303.49 252.53,-468.82 122.3,-174.96 279.14,-350.49 479.02,-550.36 -12.46,156.84 -28.31,309.72 -26.61,467.12 -3.96,152.88 0,301.22 12.46,454.1 -126.27,67.38 -258.76,157.41 -428.06,277.44 -165.33,118.34 -356.71,264.99 -566.78,440.51l0 0.01z" />
  <path id="path7" class="fil1 str0" d="M9441.58 21733.95c-20.38,-309.72 -14.16,-643.78 26.61,-1019.18 34.54,-377.1 112.11,-851.58 201.57,-1212.83 83.8,-368.6 181.19,-674.36 315.95,-949.54 134.76,-283.67 346.52,-505.63 479.02,-674.92 128.53,-159.11 214.03,-261.02 289.33,-289.33 71.34,-34.54 108.15,-10.19 126.27,81.53 90.03,-61.15 224.22,-155.14 403.71,-289.33 175.53,-138.72 417.86,-381.06 656.24,-523.75 236.68,-155.14 573.01,-273.48 756.46,-330.67 171,-48.69 238.38,-10.19 303.49,28.88 65.68,34.54 91.73,81.53 87.76,164.77 238.38,-130.23 479.02,-240.07 744,-330.1 263.29,-93.42 536.2,-164.77 819.31,-221.96 277.44,-61.15 607.55,-101.92 834.03,-122.3 217.99,-18.68 378.8,-28.88 491.47,-14.16 103.62,3.96 144.38,1.7 177.22,40.77 30.58,36.24 38.5,93.42 24.35,178.92 299.53,-15.85 580.93,-30.58 882.72,-26.05 295.56,-4.53 633.59,1.7 882.72,26.05 238.38,22.65 452.4,79.84 556.59,124.57 95.69,44.73 107.58,87.76 36.24,136.46 167.03,39.07 324.44,75.31 479.02,110.41 148.91,26.05 344.82,48.69 430.32,83.23 77.57,30.58 95.69,97.95 62.85,124.57 -32.27,11.89 -105.88,6.23 -252.53,14.16 -155.14,12.46 -421.83,24.35 -644.35,67.38 -228.18,42.47 -479.02,113.81 -680.59,167.03 -206.1,44.73 -374.83,81.53 -529.97,109.85 75.31,-134.19 148.91,-240.07 228.18,-317.64 81.53,-79.84 106.45,-122.3 238.94,-151.18 122.3,-34.54 293.3,-52.66 505.06,-54.92 -116.07,-38.5 -214.03,-58.89 -315.95,-69.08 -105.88,-14.16 -195.34,-12.46 -276.88,14.16 -87.76,24.35 -151.18,77.57 -214.03,150.61 -49.26,-85.5 -108.15,-142.69 -177.22,-178.92 -73.61,-36.8 -173.83,-43.03 -253.1,-41.33 -87.76,-1.7 -217.99,4.53 -250.83,26.61 -36.24,12.46 -20.38,50.96 49.26,69.64 66.81,14.16 268.95,0 354.45,28.31 77.57,26.61 104.18,87.76 126.27,136.46 20.38,43.03 20.38,45.3 0,124.57 -24.35,77.57 -71.34,173.26 -140.42,318.21 -295.56,52.66 -560.55,124 -819.31,205.53 -253.1,79.84 -487.51,183.45 -719.66,289.33 -244.6,101.92 -485.24,222.52 -729.85,344.82 95.69,-177.79 163.07,-352.75 201.57,-509.59 36.8,-159.11 44.73,-315.95 24.91,-454.67 132.49,-155.14 280.84,-277.44 454.1,-358.98 175.53,-85.5 468.82,-109.85 566.78,-150.61 81.53,-48.69 58.89,-132.49 -36.8,-124.57 -101.92,6.23 -362.38,69.64 -529.97,151.18 -167.03,73.04 -315.95,177.22 -454.1,303.49 -10.19,-79.27 -32.84,-136.46 -75.31,-179.49 -49.26,-48.69 -163.07,-91.73 -177.79,-81.53 -18.12,10.19 81.53,45.3 101.92,151.18 18.68,97.95 36.8,311.98 24.91,468.82 -22.65,159.11 -75.87,332.37 -126.83,480.71 -52.66,140.99 -99.65,264.99 -163.07,373.13 -336.33,134.76 -629.63,275.18 -896.88,413.9 -264.99,134.76 -411.64,252.53 -693.04,425.79 -291.03,175.53 -633.59,379.36 -1035.04,620 142.69,-234.41 248.57,-438.25 341.99,-620 79.84,-187.42 144.95,-264.99 187.98,-468.82 44.73,-205.53 77,-448.44 89.46,-744 138.72,-173.26 291.6,-327.84 466.56,-480.71 173.26,-156.84 373.13,-326.14 566.78,-428.06 191.95,-101.92 407.67,-171.56 569.04,-191.95 152.88,-28.31 305.75,40.77 340.29,26.61 26.61,-20.38 -61.15,-105.88 -152.88,-124 -104.18,-20.38 -261.02,-28.88 -416.17,14.16 -156.84,38.5 -326.14,101.92 -515.25,220.26 -193.64,116.07 -458.63,330.1 -607.55,468.82 -144.95,136.46 -244.6,236.11 -277.44,330.1 -32.27,-65.11 -77.57,-120.6 -150.61,-165.33 -75.31,-50.96 -191.95,-105.88 -277.44,-109.85 -93.42,-2.26 -248.57,44.73 -252.53,69.08 -2.26,16.42 144.38,3.96 228.18,26.61 73.61,10.19 152.88,2.26 214.03,69.08 50.96,63.42 104.18,181.75 112.11,330.67 3.96,140.42 28.31,238.38 -75.31,552.06 -110.41,318.21 -293.86,746.27 -566.78,1323.24 -311.98,221.96 -599.05,428.06 -870.27,633.59 -281.41,207.8 -554.32,411.64 -756.46,579.23 -199.87,156.84 -340.29,272.91 -429.75,356.71 140.42,-416.17 256.49,-770.61 378.8,-1088.83 110.41,-319.91 254.8,-570.74 315.95,-798.92 61.15,-234.41 77.57,-420.13 49.26,-578.67 124,-212.33 236.11,-387.29 366.34,-550.36 122.3,-163.07 232.71,-285.37 377.1,-413.9 144.95,-134.76 407.67,-305.75 481.28,-370.87 61.15,-71.34 6.23,-75.87 -77.57,-28.88 -91.73,49.26 -281.41,183.45 -428.06,318.21 -148.91,126.27 -334.06,291.03 -454.67,439.95 -124,140.99 -214.03,281.41 -276.88,413.9 -20.38,-142.69 -61.15,-236.68 -114.37,-289.33 -61.15,-53.22 -214.03,-65.11 -214.03,-28.31 -2.26,34.54 148.91,99.65 201.57,234.41 40.77,134.19 96.26,313.68 63.42,537.9 -43.03,206.1 -156.84,435.98 -264.99,729.85 -109.85,297.26 -252.53,741.74 -364.64,1033.34 -110.41,283.11 -202.14,503.36 -291.6,660.2 -95.69,151.18 -181.75,226.48 -264.99,234.41l0.02 0z" />
  <path id="path9" class="fil0 str0" d="m10829.37 18813.43c19.95756 -58.17754 108.714375 -175.912500 163.071562 -237.117656 18.119068 -20.401727 32.415938 -34.522344 39.068438 -38.062344 13.596 -9.3454 -5.945625 68.581875 -28.506094 140.854219 -7.520166 24.090784 -15.376406 47.553281 -22.453906 66.945781 -9.26 17.8354 -20.063750 39.244375 -31.591406 61.644844 -34.582971 67.201412 -75.141094 143.322656 -94.678594 158.615156 -26.33256 4.2454 -41.831250 -43.738125 -36.945000 -98.095781 1.628756 -18.119224 5.522500 -36.946719 12.035000 -54.784219" />
  <path id="path11" class="fil0 str0" d="M10489.07 20260.66c-22.08,5.66 -191.38,366.91 -201.57,454.1 -14.16,83.8 34.54,104.18 113.81,69.64 69.64,-39.07 310.28,-271.22 314.25,-289.33 -6.23,-26.61 -261.02,203.84 -301.79,164.77 -40.77,-42.47 91.73,-411.64 75.31,-399.18l-0.01 0z" />
  <path id="path13" class="fil0 str0" d="M12760.15 18868.35c-18.68,16.42 -259.32,319.91 -226.48,344.26 24.35,18.68 369.17,-189.68 389.55,-205.53 14.16,-20.38 -250.83,113.81 -277.44,95.69 -30.58,-24.35 130.23,-254.8 114.37,-234.41l0 -0.01z" />
  <path id="path15" class="fil0 str0" d="m12937.37 18166.81c-2.54756 -2.97254 -3.325625 -22.541875 -2.201719 -51.940312 3.371723 -88.195317 23.861719 -264.852188 65.051719 -347.239688 12.3156 -28.02754 33.653750 -57.860000 58.858594 -86.772500 75.614531 -86.73752 186.023906 -165.195000 191.971406 -161.797500 0.5656 0.994 -8.459375 11.535000 -23.136562 28.582813 -44.031563 51.143447 -138.938438 160.812187 -178.433438 246.597187 -39.9156 77.7154 -79.515000 249.699375 -99.448594 329.880938 -6.644536 26.727194 -11.103906 43.254062 -12.661406 42.689062" />
  <path id="path17" class="fil0 str0" d="M15410.02 17478.3c-14.72,10.19 -216.29,258.76 -165.33,289.33 48.69,24.35 421.83,-114.37 442.21,-124.57 3.96,-14.16 -319.91,77.57 -366.91,54.92 -40.77,-32.27 91.73,-234.41 90.03,-219.69l0 0.01z" />
  <path id="path19" class="fil0 str0" d="m17704.87 16966.44c-9.6256 1.55754 -18.011875 6.936875 -24.886094 14.289062 -20.622663 22.056567 -27.631406 61.868438 -13.613906 69.510938 13.591 0.2 102.026250 -14.011875 148.736250 -27.708750 15.573 -4.565627 26.503750 -9.096250 28.483750 -13.061250 1.98256 -4.674 -4.174375 -10.190000 -14.905312 -15.719219 -32.192813 -16.587667 -105.552188 -33.258281 -123.814688 -27.310781" />
  <path id="path21" class="fil0 str0" d="m16467.7 16554.81c32.27253 -22.9357 166.464375 -47.141250 236.559375 -49.208906 23.3656 -0.689224 39.608125 1.081406 42.580625 6.178906 0.6 4.1054 -13.093750 14.969375 -33.406719 29.142656 -60.938913 42.519847 -186.850781 114.819844 -219.123281 123.737344 -13.3058 -0.4257 -24.168750 -5.839375 -32.343281 -14.137813 -24.523596 -24.895314 -24.844219 -75.747187 5.733281 -95.712187" />
  <path id="path23" class="fil1 str0" d="M9820.38 22258.26c214.03,79.27 442.78,148.35 693.04,207.8 250.83,50.96 471.09,138.72 794.96,136.46 314.25,0 801.19,-79.27 1099.02,-136.46 289.33,-65.11 554.32,-148.91 653.97,-220.26 86.06,-75.31 -87.2,-165.33 -87.2,-221.96 0,-61.15 -28.88,-96.26 101.92,-137.02 124,-42.47 378.8,-52.66 653.97,-124 275.18,-81.53 705.5,-228.18 960.3,-330.1 238.38,-110.41 381.06,-212.33 491.47,-289.9 103.62,-77 138.16,-113.81 150.61,-164.77 12.46,-53.22 -22.65,-116.07 -87.76,-167.03 173.26,-10.19 375.4,-47 605.28,-110.41 228.18,-62.85 485.24,-126.27 770.61,-275.18 283.11,-160.8 715.69,-499.4 933.68,-660.2 211.76,-163.07 285.37,-222.52 352.75,-303.49 61.15,-86.06 69.08,-157.41 24.35,-206.1 114.37,-93.99 224.22,-187.42 352.75,-303.49 126.27,-120.6 264.99,-253.1 391.25,-373.13 118.34,-124.57 293.3,-264.99 328.4,-344.82 24.35,-83.23 -18.68,-126.27 -151.18,-136.46 122.3,-48.69 264.99,-136.46 428.06,-262.72 165.33,-132.49 428.06,-371.43 544.13,-495.44 112.11,-126.27 151.18,-203.84 100.22,-248.57 -63.42,-47 -240.64,-53.22 -454.67,-26.61 -220.26,18.12 -635.86,99.65 -831.77,150.61 -201.57,49.26 -283.11,97.95 -354.45,138.72 -77.57,32.84 -81.53,47 -75.31,81.53 3.96,34.54 44.73,73.61 113.81,124.57 -56.62,5.66 -109.85,-4.53 -150.61,-14.72 -44.73,-14.16 -89.46,-36.24 -101.92,-66.81 -16.42,-39.07 -2.26,-77.57 26.61,-138.72l-340.29 150.61c65.11,59.45 167.03,114.37 289.33,165.33 120.04,52.66 313.68,109.85 454.67,124 136.46,0 260.46,-24.35 364.64,-81.53 95.69,-54.92 197.61,-229.88 228.18,-234.41 24.35,-7.93 -12.46,126.27 -63.42,191.95 -58.89,61.15 -146.65,122.3 -240.07,167.03 -90.03,36.8 -193.64,58.89 -304.06,67.38 -10.19,112.11 -44.73,220.26 -112.11,332.37 -73.04,109.85 -258.76,301.22 -289.33,315.95 -34.54,3.96 65.11,-177.79 112.11,-261.02 40.77,-87.76 151.18,-163.07 165.33,-234.41 7.93,-75.31 -14.16,-142.69 -90.03,-193.64 -79.27,-53.22 -254.8,-71.34 -352.75,-110.41 -99.65,-44.73 -148.35,-120.04 -240.07,-138.16 -93.99,-18.68 -173.26,-16.42 -340.86,28.31 -185.15,47 -484.68,130.23 -717.39,220.26 -232.15,75.31 -429.75,142.69 -656.24,248.57 -228.18,101.92 -471.09,228.18 -719.66,370.87 191.95,-3.96 385.59,26.61 580.93,83.8 197.61,53.22 385.59,205.53 579.23,261.02 183.45,48.69 358.41,61.15 517.52,69.08 146.65,3.96 240.64,20.38 391.25,-14.16 148.91,-40.77 430.32,-183.45 505.63,-191.95 67.38,-15.85 12.46,81.53 -77.57,137.02 -97.39,58.89 -266.69,173.26 -452.4,207.8 -185.15,26.61 -397.48,11.89 -643.78,-43.03 30.58,148.91 22.08,281.41 -24.91,413.9 -54.92,130.23 -140.42,244.6 -264.99,358.98 -122.3,109.85 -334.06,240.07 -454.1,303.49 -124.57,63.42 -314.25,89.46 -277.44,54.92 34.54,-47 360.68,-207.8 491.47,-317.64 122.3,-118.34 211.76,-236.68 276.88,-371.43 65.11,-140.42 110.41,-289.33 126.27,-454.1 -132.49,-26.61 -266.69,-63.42 -403.14,-110.41 -140.99,-56.62 -279.71,-132.49 -416.17,-178.92 -136.46,-47 -256.49,-87.76 -415.6,-83.8 -167.03,-6.23 -342.56,7.93 -580.93,97.95 -250.83,89.46 -621.7,301.79 -870.27,439.95 -253.1,130.79 -417.86,244.6 -605.85,358.98 -195.34,109.85 -348.22,191.38 -529.97,315.95 -181.19,118.34 -356.71,258.76 -541.86,413.9 193.64,-32.84 364.64,-32.84 529.97,0 160.8,30.58 279.14,124 439.95,179.49 155.14,44.73 318.21,95.69 505.63,122.3 187.42,24.35 389.55,44.73 605.28,28.31 206.1,-26.61 434.28,-89.46 630.19,-165.33 189.68,-79.27 460.33,-291.03 505.63,-289.33 40.77,3.96 -106.45,189.68 -253.1,289.33 -150.61,90.03 -364.64,179.49 -642.08,261.02 -24.35,122.3 -87.76,244.6 -189.68,358.98 -103.62,113.81 -401.44,315.95 -429.75,330.1 -34.54,-2.26 163.07,-179.49 240.07,-289.33 79.84,-110.41 140.99,-226.48 214.03,-356.71 -244.6,44.73 -482.98,44.73 -731.55,0 -252.53,-53.22 -554.32,-216.29 -756.46,-277.44 -207.8,-57.19 -315.95,-61.15 -466.56,-67.38 -154.58,-10.19 -299.53,-5.66 -442.21,12.46 -159.11,75.31 -319.91,171 -491.47,303.49 -179.49,128.53 -381.06,314.25 -541.86,468.82 -161.37,155.14 -300.09,291.6 -416.17,440.51 207.8,1.7 432.02,24.35 681.15,83.23 246.3,59.45 570.74,204.4 806.85,246.87 232.71,34.54 416.17,-18.12 580.93,-40.77 155.14,-30.58 257.06,-69.08 377.1,-124.57 122.3,-62.85 297.83,-221.96 352.75,-234.41 53.22,-14.16 36.8,81.53 -48.69,152.88 -95.69,65.68 -322.17,181.75 -505.63,246.87 -191.38,61.15 -383.33,95.69 -605.28,112.11 -10.19,77.57 -73.61,148.91 -189.68,191.38 -124.57,45.3 -374.83,75.87 -515.82,83.8 -148.91,-2.26 -330.1,-50.96 -315.95,-69.08 22.65,-20.38 315.95,-28.88 440.51,-40.77 116.07,-16.42 179.49,-20.38 252.53,-43.03 65.11,-26.61 116.07,-63.42 152.88,-109.85 -126.27,-43.03 -279.14,-86.06 -466.56,-137.02 -191.95,-56.62 -454.67,-138.16 -656.24,-164.77 -208.37,-22.65 -385.59,-16.42 -556.59,26.61 -114.37,71.34 -203.84,146.65 -277.44,234.41 -75.31,83.23 -120.6,174.96 -151.18,275.18l0.03 -0.03z" />
  <path id="path25" class="fil0 str0" d="m13049.48 19765.23c-25.9056 -1.6954 -162.009375 65.718750 -249.224063 125.329219 -29.071568 19.870167 -52.710937 38.873281 -65.025937 54.160781 -11.18258 13.737 -18.790625 29.371250 -22.833438 45.685000 -12.128443 48.941257 7.830938 103.935000 59.633438 131.535000 14.86256 9.24 42.181875 15.711250 74.960000 20.267656 98.334383 13.669227 245.797500 9.744844 253.440000 8.042344 -1.6951 -12.3152 -143.216250 -32.595000 -229.155469 -57.249844 -28.646418 -8.218287 -51.117031 -16.922656 -60.174531 -25.980156 -9.26 -9.24 -11.004375 -18.648125 -7.872344 -28.344219 9.396093 -29.088287 63.219844 -60.408281 95.072344 -93.955781 26.33253 -38.227 114.129375 -121.344375 144.438750 -159.564375 10.103126 -12.744 13.818750 -20.490625 6.741250 -19.925625" />
  <path id="path27" class="fil0 str0" d="M15699.35 18372.91c57.19,26.61 405.41,108.15 439.95,109.85 18.68,-7.93 -225.92,-134.19 -301.22,-150.61 -77.57,-20.38 -191.95,14.16 -138.72,40.77l-0.01 -0.01z" />
  <path id="path29" class="fil0 str0" d="m13428.28 21487.64c12.3156 -13.3054 31.849375 -28.627500 54.834219 -44.127188 68.954533 -46.499067 168.963281 -94.592812 198.265781 -94.592812 24.20251 0.2 18.789375 48.093750 -6.928594 94.592812 -8.572663 15.499697 -19.401406 30.822188 -32.141406 44.127188 -14.72256 10.61754 -36.203750 25.339375 -60.754688 41.449844 -73.652813 48.331417 -174.932812 109.160156 -204.235312 109.160156 -27.181 0.2 -15.817500 -60.834375 14.731875 -109.164375 10.183131 -16.112 22.498125 -30.830625 36.228125 -41.445625" />
  <path id="path31" class="fil0 str0" d="M10994.7 21279.84c-47,22.08 -173.26,132.49 -126.27,164.77 47,28.88 374.83,20.38 403.71,14.16 14.16,-11.89 -236.68,-40.77 -264.99,-69.08 -24.91,-32.84 109.85,-95.69 112.11,-109.85 -2.26,-26.61 -87.76,-26.61 -124.57,0l0.01 0z" />
  <path id="path33" class="fil0 str0" d="m10513.42 22092.92c26.0456 -0.5654 59.203125 0.037500 95.183594 1.674844 107.941411 4.912032 241.283906 19.137656 284.176406 39.095156 11.756 5.0954 19.146875 14.508125 22.075625 25.797188 8.786253 33.867197 -22.640625 84.617812 -97.385625 86.312812 -27.60256 -0.5654 -70.953125 -6.580625 -121.346094 -15.604688 -151.178913 -27.072197 -365.738906 -81.220312 -408.623906 -96.505312 -12.3158 -6.65257 -11.076250 -12.668125 -0.610000 -17.914219 31.398756 -15.738284 145.845000 -24.550781 226.530000 -22.855781" />
  <path id="path35" class="fil1 str0" d="M8609.82 23226.48c238.38,-405.97 495.44,-780.81 794.96,-1133.56 295.56,-354.45 556.59,-625.66 970.49,-978.41 407.67,-358.98 984.08,-813.08 1463.09,-1143.75 475.05,-336.33 947.84,-595.09 1364,-839.69 405.41,-246.3 650.01,-432.02 1071.84,-633.59 426.36,-216.29 1015.22,-434.28 1437.61,-607.55 409.37,-175.53 657.94,-291.6 1020.88,-411.64 355.01,-124.57 797.23,-218.56 1123.36,-304.06 319.91,-89.46 566.78,-148.91 819.31,-193.64 252.53,-44.73 505.63,-57.19 694.74,-69.08 194.21,-22.65 391.82,-36.8 428.62,-26.61 22.08,12.46 -112.11,57.19 -277.44,95.69 -177.22,28.88 -424.09,32.84 -731.55,97.95 -308.02,61.15 -703.23,173.26 -1084.3,289.33 -383.33,108.15 -754.19,228.18 -1198.67,399.75 -454.67,173.26 -984.64,387.29 -1488,633.59 -509.59,238.94 -1039.56,515.82 -1527.07,799.49 -497.13,275.18 -963.69,595.09 -1375.89,866.3 -411.64,268.95 -719.09,472.79 -1057.68,744 -350.49,264.99 -674.92,560.55 -972.19,856.11 -301.79,291.03 -591.13,584.9 -783.07,880.46 -185.15,289.33 -305.75,452.4 -352.75,841.96 -56.62,381.06 14.72,1045.23 24.91,1442.71 3.96,389.55 14.16,436.55 14.16,895.18 -3.96,458.63 -10.19,1051.46 -26.61,1818.11l-529.98 0.01c-47,-613.77 -69.08,-1179.99 -75.31,-1708.26 -10.19,-537.9 47,-1061.65 38.5,-1461.39 -16.42,-397.48 -62.85,-707.2 -101.92,-921.23 -44.73,-217.99 53.22,-126.27 -138.72,-393.52 -197.61,-283.11 -694.74,-882.72 -1020.88,-1247.36 -328.4,-365.21 -583.2,-562.81 -946.14,-923.49 -374.83,-370.87 -833.46,-870.27 -1249.29,-1253.59 -413.79,-393.52 -864.27,-741.74 -1210.79,-1045.79 -352.64,-307.45 -593.16,-489.21 -870.38,-772.31 -285.37,-297.83 -558.51,-625.66 -794.96,-937.65 -236.45,-308.02 -419.9,-638.12 -605.39,-880.46 -191.61,-240.64 -324.1,-352.75 -515.71,-579.23 -195.68,-236.68 -597.24,-758.16 -631.89,-827.8 -36.69,-75.31 193.64,144.95 415.83,385.59 214.03,240.64 658.39,737.77 884.65,1020.88 220.14,267.25 269.06,377.1 452.52,605.28 181.41,224.22 389.33,464.86 631.89,729.85 10.19,118.34 55.04,224.22 126.38,310.28 71.34,85.5 205.87,154.58 301.68,207.8 91.73,47 169.18,67.38 240.53,69.08 303.72,253.1 648.2,546.39 1033.45,888.95 387.29,338.03 900.96,805.15 1273.98,1157.9 370.87,352.18 611.51,637.55 933.68,949.54 313.68,309.72 704.93,650.01 945.57,895.18 232.71,234.41 299.53,330.1 454.67,529.41 152.88,195.91 334.06,495.44 442.21,648.31 99.65,147.22 156.84,222.52 163.07,234.98l0 -0.01z" />
  <path id="path37" class="fil1 str0" d="M1218.77 15916.69c-110.07,-142.69 -228.3,-291.6 -354.68,-454.67 -136.57,-169.3 -303.72,-383.33 -415.83,-523.75 -112.11,-142.69 -230.33,-334.06 -252.76,-315.95 -24.46,18.12 48.92,258.76 101.92,413.9 46.88,146.65 110.07,309.72 189.57,480.71 8.15,-132.49 20.38,-205.53 36.69,-219.69 16.31,-14.72 30.58,61.15 50.96,124 16.31,59.45 26.5,161.37 63.19,234.41 30.58,75.31 93.76,136.46 150.84,191.95 57.07,42.47 124.34,85.5 201.8,97.39 71.34,8.49 144.72,4.53 228.3,-28.31l0 0.01z" />
  <path id="path39" class="fil1 str0" d="M2466.25 17557.57c-122.3,-132.49 -242.57,-275.18 -352.64,-428.06 -116.19,-155.14 -220.14,-346.52 -328.18,-495.44 -118.23,-163.07 -234.41,-332.37 -340.41,-428.06 -112.11,-95.69 -205.87,-126.27 -303.72,-138.72 -101.92,-18.12 -216.07,-3.96 -262.95,43.03 -50.96,40.77 -26.5,120.04 -14.27,206.1 8.15,81.53 95.8,236.11 89.69,275.18 -6.12,24.35 -97.84,0 -126.38,-81.53 -34.65,-90.03 -67.27,-291.6 -75.42,-385.59 -12.23,-87.76 -8.15,-136.46 12.23,-138.72 -48.92,-56.62 -93.76,-113.81 -126.38,-178.92 -38.73,-69.64 -50.96,-195.91 -75.42,-206.1 -24.46,-7.93 -71.34,63.42 -63.19,150.61 0,86.06 63.19,208.37 87.65,344.82 18.35,128.53 -12.23,262.72 50.96,428.06 59.11,163.07 167.15,334.06 315.95,536.2 -40.77,56.62 -73.38,134.19 -75.42,248.57 -14.27,109.85 -10.19,240.64 36.69,413.9 50.96,168.73 173.26,425.79 264.99,605.28 83.57,173.26 179.38,319.91 264.99,439.95 -46.88,67.38 -65.23,157.41 -63.19,277.44 0,116.07 22.42,279.14 75.42,425.79 46.88,134.76 93.76,240.64 228.3,428.06 130.46,189.68 322.06,417.86 566.66,701.54 -97.84,-14.16 -154.92,0 -163.07,42.47 -14.27,40.77 34.65,112.11 99.88,206.1 59.11,87.76 144.72,206.1 264.99,330.1 118.23,118.34 317.98,291.6 442.32,387.29 116.19,90.03 214.03,144.95 277.22,165.33 -116.19,34.54 -169.18,87.76 -150.84,150.61 14.27,61.15 38.73,146.65 238.49,234.41 193.64,83.8 627.82,222.52 933.57,275.18 297.6,49.26 548.32,50.96 870.38,14.16 320.02,-44.73 725.49,-173.26 1035.2,-275.18 305.75,-109.85 565.08,-234.41 793.26,-372.57 -53.22,-63.42 -146.65,-134.76 -264.99,-206.1 -126.27,-79.27 -279.14,-181.19 -467.12,-234.41 -195.34,-53.22 -435.98,-101.92 -666.26,-83.8 -232.37,8.49 -513.67,90.03 -695.08,165.33 -181.41,75.3 -291.49,175.53 -377.1,277.44 -89.69,95.69 -140.65,215.73 -152.88,289.33 -20.38,61.15 -6.12,101.92 50.96,122.3 50.96,11.89 269.06,6.23 277.22,14.16 -2.04,10.19 -154.92,75.31 -238.49,69.08 -85.61,-11.89 -248.68,-32.27 -252.76,-124 -4.08,-93.99 59.11,-253.1 214.03,-454.67 -267.03,-69.08 -497.36,-142.69 -707.31,-220.26 -209.95,-85.5 -383.21,-120.04 -542.2,-261.02 -169.18,-146.65 -393.4,-527.71 -428.06,-592.82 -36.69,-67.38 130.46,113.81 226.26,205.53 91.73,86.06 144.72,210.06 315.95,318.21 167.15,97.95 450.48,220.26 668.58,289.33 207.91,65.11 405.63,112.11 593.16,124.57 163.07,-104.18 324.1,-179.49 491.25,-234.41 165.11,-59.45 336.33,-81.53 505.51,-97.95 165.11,-20.38 311.81,-34.54 478.85,-12.46 163.07,18.68 324.44,59.45 491.47,122.3 -242.9,-229.88 -467.12,-435.98 -681.15,-633.59 -217.82,-197.61 -405.35,-371.43 -592.88,-536.2 -189.57,-169.3 -332.25,-346.52 -529.97,-468.82 -205.87,-128.53 -444.36,-226.48 -668.58,-263.29 -230.33,-36.24 -468.82,-3.96 -668.58,43.03 -203.84,39.07 -381.17,118.34 -515.71,191.95 -138.61,66.81 -228.3,146.65 -291.49,221.96 -65.23,77.57 -50.96,175.53 -75.42,206.1 -28.54,14.16 -65.23,-35.11 -63.19,-83.8 -4.08,-48.69 22.42,-120.04 63.19,-206.1 -95.8,-44.73 -185.49,-83.23 -277.22,-138.16 -91.73,-50.96 -205.87,-110.41 -264.99,-177.79 -67.27,-79.27 -144.72,-258.76 -114.15,-262.72 26.5,-3.96 171.22,173.26 277.22,248.57 101.92,71.34 224.22,136.46 328.18,165.33 91.73,15.85 136.57,0 252.76,-40.77 112.11,-47 267.03,-152.88 442.32,-208.37 173.26,-56.62 438.25,-105.88 605.39,-124 156.95,-22.65 244.6,-22.65 364.87,0 122.3,22.08 232.37,61.15 354.68,124 -273.14,-217.99 -503.48,-405.41 -707.31,-578.67 -209.95,-177.22 -344.48,-308.02 -505.51,-454.67 -165.11,-152.88 -297.6,-323.87 -452.52,-425.79 -156.95,-105.88 -332.25,-136.46 -479.02,-179.49 -152.88,-50.96 -307.79,-99.65 -417.86,-83.8 -116.19,12.46 -211.99,97.95 -264.99,179.49 -53,73.61 -71.34,177.22 -63.19,289.33 0,114.37 83.57,319.91 77.46,373.13 -18.35,34.54 -110.07,-28.31 -140.65,-109.85 -32.61,-83.8 -44.84,-281.41 -36.69,-373.13 4.08,-99.65 18.35,-163.07 50.96,-206.1 -101.92,-57.19 -183.45,-120.04 -228.3,-220.26 -53,-101.92 -79.5,-352.18 -63.19,-358.41 20.38,-8.49 101.92,236.11 165.11,315.95 50.96,71.34 97.84,128.53 163.07,124 59.11,-11.89 142.69,-120.04 228.3,-150.61 83.57,-34.54 173.26,-47 301.68,-28.31 130.46,18.12 287.41,69.08 479.02,152.88l0 0.01z" />
  <path id="path41" class="fil0 str0" d="m978.24 16744.49c-3.05758 2.54757 0.636875 16.561250 8.376094 36.626562 23.217663 60.195947 82.838906 174.855938 105.773906 197.783438 18.3458 18.26257 47.011875 -9.341250 53.317969 -39.809531 2.102038 -10.156097 1.719531 -20.630469 -2.357969 -29.830469 -6.6258 -11.757 -19.620000 -28.560000 -35.545156 -47.006406 -47.775471 -55.339222 -121.922344 -125.406094 -129.564844 -117.763594" />
  <path id="path43" class="fil0 str0" d="m3489.51 18713.21c7.6458 0.7 27.519375 11.076250 53.349219 28.584219 77.489533 52.523917 208.578281 162.933281 223.870781 205.825781 2.54758 12.747 -2.166250 23.073750 -11.943906 31.726562 -29.332971 25.958442 -104.241094 36.788438 -165.396094 52.073438 -67.26758 12.3157 -184.980000 24.309375 -253.393594 27.149062 -22.804538 0.946567 -40.131406 0.875938 -48.286406 -0.539062 -7.6458 -3.1157 -6.881250 -8.777500 -0.639063 -15.766719 18.726561 -20.967662 86.759063 -53.875781 124.979063 -65.763281 11.728 -5.0957 25.988125 -6.757500 41.084531 -7.057812 45.289223 -0.900947 98.032969 10.457812 111.795469 -21.822188 2.54758 -12.17257 -3.185625 -32.909375 -12.645000 -57.167656 -28.378121 -72.774842 -90.292500 -177.242344 -62.775000 -177.242344" />
  <path id="path45" class="fil0 str0" d="M4321.16 19555.16c85.61,22.65 264.99,95.69 340.41,165.33 71.34,61.15 105.99,205.53 87.65,205.53 -30.58,-7.93 -124.34,-174.96 -226.26,-234.41 -103.96,-62.85 -348.56,-89.46 -379.14,-109.85 -30.58,-30.58 83.57,-47 177.34,-26.61l0 0.01z" />
  <path id="path47" class="fil0 str0" d="m5619.59 20629.27c10.19258 3.1157 30.332500 18.580000 54.995000 40.626875 73.98756 66.140624 188.677500 191.518125 197.595000 220.393125 0.8 7.6457 -11.571875 9.698125 -29.569375 7.867031 -53.99253 -5.493287 -165.815625 -45.944531 -196.520625 -75.247031 -32.10751 -35.252 -53.893125 -133.235625 -45.579375 -175.009219 2.771251 -13.924532 8.886875 -21.603281 19.079375 -18.630781" />
  <path id="path49" class="fil0 str0" d="M2454.02 20215.37c-18.35,-5.66 0,120.6 24.46,151.18 20.38,24.35 89.69,36.8 89.69,14.16 -12.23,-32.84 -97.84,-160.8 -114.15,-165.33l0 -0.01z" />
  <path id="path51" class="fil0 str0" d="m1532.68 18645.83c-4.58758 -0.997 -3.951250 11.255000 0.061406 30.851719 12.037971 58.790162 54.463594 183.745781 77.398594 216.018281 18.3458 28.8757 64.207500 36.093750 81.693281 21.656250 5.828598 -4.81257 8.504219 -12.031250 5.956719 -21.656250 -5.0958 -10.75757 -16.942500 -31.813125 -32.102656 -57.283594 -45.480471 -76.411412 -120.774844 -192.556406 -133.007344 -189.586406" />
  <path id="path53" class="fil1 str0" d="M1394.07 15600.74c-69.3,-108.15 -185.49,-240.64 -340.41,-413.9 -169.18,-179.49 -462.71,-456.37 -605.39,-619.44 -136.57,-167.03 -244.6,-311.98 -214.03,-332.37 22.42,-18.12 146.76,53.22 364.87,221.96 101.92,-20.38 220.14,-20.38 354.68,0 126.38,14.72 301.68,50.96 440.29,110.41 134.53,58.89 260.91,138.72 379.14,246.3 63.19,-36.24 142.69,-40.77 238.49,-11.89 95.8,30.58 189.57,97.95 328.18,177.22 132.49,73.61 281.29,148.91 454.55,248.57 -22.42,67.38 -30.58,124.57 -24.46,179.49 0,50.96 24.46,99.65 50.96,138.72 -50.96,57.19 -99.88,81.53 -138.61,81.53 -44.84,-2.26 -48.92,-65.11 -114.15,-95.69 -69.3,-39.07 -258.87,-132.49 -277.22,-124.57 -20.38,6.23 87.65,87.76 150.84,150.61 57.07,55.49 150.84,93.99 201.8,193.64 38.73,90.03 38.73,269.52 63.19,373.13 24.46,101.92 50.96,181.75 87.65,246.87 -65.23,132.49 -114.15,246.3 -138.61,373.13 -28.54,120.04 -36.69,232.15 -24.46,344.26 -63.19,-47 -189.57,-179.49 -379.14,-413.9 -195.68,-238.38 -446.4,-556.59 -768.46,-978.41 46.88,-85.5 65.23,-187.42 63.19,-289.33 -4.08,-104.18 -36.69,-224.22 -89.69,-344.26 81.53,3.96 158.99,22.08 240.53,54.92 73.38,28.31 203.84,130.23 226.26,124 18.35,-18.12 -48.92,-130.23 -99.88,-178.92 -57.07,-45.3 -138.61,-79.84 -214.03,-96.26 -79.5,-20.38 -161.03,-32.27 -252.76,-28.31 -97.84,-97.95 -183.45,-159.11 -264.99,-206.1 -81.53,-44.73 -236.45,-89.46 -214.03,-54.92 18.35,34.54 220.14,161.37 313.91,246.87 91.73,75.31 163.07,138.72 214.03,221.96 38.73,79.84 40.77,179.49 38.73,261.02 0,73.61 -22.42,140.42 -50.96,193.64l-0.01 0.02z" />
  <path id="path55" class="fil1 str0" d="M2820.92 15668.12c30.58,47 75.42,83.23 150.84,109.85 73.38,24.35 163.07,39.07 277.22,43.03 -116.19,81.53 -201.8,160.8 -264.99,246.3 -63.19,86.06 -103.96,161.37 -114.15,249.13 -44.84,-124.57 -71.34,-228.75 -87.65,-304.06 -20.38,-81.53 8.15,-118.34 0,-164.77 -12.23,-50.96 -30.58,-104.18 -63.19,-151.18 32.61,-7.93 67.27,-18.12 101.92,-28.31l0 0.01z" />
  <path id="path57" class="fil2 str0" d="M3564.93 15048.12c-136.57,-52.66 -242.57,-71.34 -340.41,-54.92 -101.92,8.49 -175.3,67.38 -228.3,138.72 -57.07,71.34 -112.11,201.57 -87.65,289.33 22.42,79.84 130.46,151.18 238.49,206.1 103.96,50.96 234.41,87.76 391.37,109.85 -187.53,85.5 -340.41,202.14 -466.78,373.13 -128.42,165.33 -240.53,415.6 -289.45,619.44 -55.04,206.1 -73.38,391.82 -24.46,565.08 50.96,158.54 156.95,307.45 301.68,399.18 134.53,83.8 313.91,130.79 505.51,124.57 191.61,-18.68 448.44,-112.11 605.39,-179.49 142.69,-67.38 191.61,-120.04 264.99,-206.1 69.3,-89.46 126.38,-160.8 163.07,-331.8 26.5,-185.72 18.35,-656.81 38.73,-729.85 18.35,-71.34 63.19,142.69 87.65,303.49 16.31,152.88 -16.31,440.51 50.96,619.44 71.34,175.53 187.53,344.82 364.87,428.62 171.22,77 452.52,65.11 656.3,40.77 197.61,-30.58 395.22,-83.8 529.97,-206.1 132.49,-128.53 221.96,-336.33 252.53,-537.9 22.65,-212.33 -50.96,-499.4 -101.92,-689.08 -54.92,-193.64 -126.27,-295.56 -214.03,-440.51 -95.69,-148.91 -203.84,-293.3 -340.29,-442.21 155.14,-75.31 244.6,-151.18 277.44,-234.41 26.61,-81.53 -3.96,-171.56 -100.22,-261.02 -112.11,97.95 -197.61,136.46 -240.07,138.72 -50.96,-3.96 -87.76,-73.61 -39.07,-152.88 47,-95.69 232.71,-236.68 328.4,-358.98 91.73,-122.3 142.69,-205.53 215.73,-344.26 67.38,-142.69 151.18,-283.11 187.98,-476.75 28.31,-199.87 28.31,-479.02 0,-689.08 -39.07,-217.99 -142.69,-487.51 -202.14,-579.23 -67.38,-91.73 -105.88,-28.31 -163.07,40.77 -58.89,61.15 -69.08,283.67 -164.77,358.98 -100.22,71.34 -293.86,132.49 -416,95.69 -124.34,-42.47 -224.22,-232.15 -315.95,-315.95 -93.76,-91.73 -163.07,-203.84 -238.49,-179.49 -81.53,28.88 -158.99,140.99 -240.53,344.82 38.73,174.96 57.07,364.64 63.19,591.13 -2.04,217.99 -22.42,676.62 -36.69,731.55 -14.27,50.96 -38.73,-246.3 -50.96,-413.9 -14.27,-173.26 -28.54,-454.1 -50.96,-606.98 -30.58,-161.37 -57.07,-214.03 -126.38,-315.95 -77.46,-101.92 -230.33,-267.25 -301.68,-275.18 -71.34,-14.72 -105.99,113.81 -126.38,219.69 -30.58,104.18 6.12,289.9 -24.46,399.75 -38.73,97.95 -53,155.14 -177.34,234.41 -134.53,75.31 -438.25,134.76 -580.93,248.57 -144.72,108.15 -234.41,271.22 -277.22,426.36 -53,156.84 -71.34,341.99 0,509.59 73.38,164.77 218.1,311.42 442.32,464.29l0.03 -0.02z" />
  <path id="path59" class="fil0 str0" d="M3829.91 14983c93.76,57.19 173.26,105.88 238.49,138.72 59.11,32.84 83.57,50.96 150.84,54.92 67.27,3.96 148.8,-11.89 252.76,-40.77 -53,69.64 -105.99,110.41 -189.57,122.3 -87.65,8.49 -209.95,-10.19 -289.45,-54.92 -79.5,-47 -128.42,-120.04 -163.07,-220.26l0 0.01z" />
  <path id="path61" class="fil0 str0" d="m4143.82 15437.67c-17.3256 0.4 -40.638125 2.406250 -67.104688 6.723438 -79.399691 12.951562 -187.180312 43.101562 -246.805312 77.076562 -21.40258 11.18257 -42.932500 26.435000 -62.870156 43.182812 -59.812973 50.243447 -105.294844 113.944688 -90.009844 121.587188 16.8151 0.2 118.477500 -71.026875 208.677656 -116.808750 30.066721 -15.260622 58.859844 -27.716250 82.812344 -33.801250 21.91258 -8.217 46.500000 -12.208750 71.565156 -13.836563 75.195471 -4.883442 154.689844 11.571563 179.154844 -0.323437 19.8758 -16.98757 1.910625 -54.354375 -34.111406 -72.933750 -12.007348 -6.193127 -26.021094 -10.298750 -41.308594 -10.866250" />
  <path id="path63" class="fil0 str0" d="m4107.13 15700.39c-13.768 5.66257 -32.105625 13.341875 -52.584844 23.047031 -61.437661 29.115472 -142.077656 76.462969 -175.715156 142.282969 -36.696 56.48254 -59.621250 196.726875 -58.474688 264.989531 0.382198 22.754227 3.439688 37.510469 9.554688 38.500469 3.56758 0.7 12.358125 -13.872500 24.524687 -35.733906 36.499693 -65.584227 103.382813 -203.068594 150.775313 -253.596094 51.9751 -51.812 123.446250 -92.471250 167.973750 -118.161562 14.84253 -8.563447 26.691250 -15.463438 33.826250 -20.558438 12.23 -36.24 -46.880000 -61.150000 -99.880000 -40.770000" />
  <path id="path65" class="fil0 str0" d="M5342.38 15562.24c-4.08,18.12 154.92,48.69 201.8,124 36.69,73.61 18.35,291.6 38.73,315.95 12.23,10.19 79.21,-144.38 75.42,-220.26 -2.04,-79.27 -38.73,-199.31 -87.65,-234.41 -59.11,-38.5 -224.22,-10.19 -228.3,14.72z" />
  <path id="path67" class="fil0 str0" d="M5140.58 15272.34c44.84,28.88 136.57,69.64 228.3,43.03 87.65,-28.31 299.47,-179.49 313.62,-207.8 4.53,-32.84 -166.86,-3.96 -238.21,14.16 -69.3,16.42 -120.26,77.57 -177.34,81.53 -67.27,-3.96 -167.15,-91.73 -189.57,-81.53 -22.42,12.46 14.27,112.11 63.19,150.61l0.01 0z" />
  <path id="path69" class="fil0 str0" d="M4914.32 14846.55c16.31,77.57 -28.54,277.44 0,370.87 24.46,85.5 91.73,134.76 138.61,179.49 38.73,36.8 132.49,53.22 99.88,95.69 -38.73,43.03 -250.72,81.53 -313.91,179.49 -65.23,95.69 -42.81,326.14 -75.42,399.75 -42.81,65.11 -122.3,75.31 -152.88,14.16 -38.73,-69.64 0,-301.79 -48.92,-399.75 -57.07,-101.92 -222.18,-150.61 -252.76,-193.64 -30.58,-47 42.81,-52.66 87.65,-81.53 40.77,-36.8 114.15,-57.19 165.11,-124 38.73,-75.87 73.38,-216.29 112.11,-304.06 38.73,-97.95 83.57,-210.06 126.38,-234.41 40.77,-20.38 89.69,12.46 114.15,97.95l0 -0.01z" />
  <path id="path71" class="fil2 str0" d="M4712.52 15315.37c-20.38,-2.26 -48.92,114.37 -38.73,150.61 8.15,26.61 77.46,50.96 89.69,26.61 4.08,-26.61 -38.73,-177.22 -50.96,-177.22z" />
  <path id="path73" class="fil2 str0" d="M2983.99 14253.16c-85.61,-101.92 -134.53,-240.07 -163.07,-439.95 -34.65,-203.84 -44.84,-518.08 0,-744 38.73,-228.18 128.42,-482.98 277.22,-607.55 148.8,-126.27 438.25,-163.07 617.62,-165.33 171.22,-10.19 313.91,26.61 428.06,110.41 -69.3,164.77 -118.23,313.68 -138.61,454.67 -26.5,140.42 46.88,275.18 0,372.57 -59.11,87.76 -189.57,114.37 -313.91,165.33 -124.34,38.5 -315.95,38.5 -417.86,109.85 -105.99,71.34 -169.18,199.87 -214.03,330.67 -50.96,122.3 -73.38,262.72 -75.42,413.33z" />
  <path id="path75" class="fil2 str0" d="M5179.31 12392.58c63.19,-63.42 142.69,-118.34 238.49,-165.33 93.76,-50.96 187.53,-136.46 328.12,-124.57 138.72,10.19 297.83,67.38 493.17,179.49 -71.34,12.46 -138.72,63.42 -201.57,152.88 -67.38,85.5 -112.11,304.06 -189.68,370.87 -85.5,57.19 -213.97,47 -291.43,0 -77.46,-54.92 -105.99,-221.96 -163.07,-289.33 -63.19,-67.38 -134.53,-113.81 -214.03,-124l0 -0.01z" />
  <path id="path77" class="fil1 str0" d="M4649.33 12616.8c-26.5,-167.6 -30.58,-377.1 -12.23,-660.77 18.35,-285.37 34.65,-721.35 112.11,-1016.92 71.34,-297.83 211.99,-540.17 328.18,-744 105.99,-207.8 203.84,-342.56 340.41,-481.28 136.57,-146.65 297.54,-301.79 466.84,-362.94 163.07,-61.15 319.91,-65.11 517.52,-11.89 199.87,44.73 479.02,144.38 656.24,275.18 165.33,122.3 193.64,234.41 352.75,454.67 159.11,215.73 411.64,582.63 593.39,825.54 174.96,232.15 332.37,472.79 454.67,578.67 113.81,99.65 158.54,167.03 252.53,28.31 91.73,-144.38 211.76,-629.63 313.68,-882.16 97.95,-261.02 138.72,-399.75 279.71,-660.77 134.19,-272.91 354.45,-653.97 541.86,-923.49 185.72,-270.65 377.1,-511.29 566.78,-674.36 187.42,-163.07 356.71,-240.64 554.32,-304.06 193.64,-66.81 387.29,-138.16 605.28,-95.69 212.33,34.54 460.9,132.49 668.7,315.95 195.91,185.72 373.13,468.82 556.59,772.88 187.42,297.26 364.64,629.63 554.32,1004.46 222.52,-38.5 403.71,-54.92 566.78,-40.77 155.14,10.19 254.8,47 379.36,110.41 120.04,58.89 240.07,134.19 352.18,234.41l-87.2 220.26c-216.29,-20.38 -373.13,-32.84 -479.02,-14.72 -106.45,10.19 -114.37,-11.89 -151.18,97.95 -42.47,108.15 -57.19,456.93 -89.46,550.36 -39.07,83.8 -18.68,20.38 -112.11,-40.77 -104.18,-69.08 -344.26,-276.88 -454.67,-332.37 -113.81,-61.15 -67.38,-66.81 -189.68,14.72 -128.53,85.5 -305.75,238.38 -554.32,482.98 50.96,-234.41 108.15,-430.32 163.07,-579.23 48.69,-154.58 108.15,-228.18 177.22,-330.1 69.64,-105.88 152.88,-210.06 250.83,-303.49 -130.23,-309.72 -248.57,-583.2 -377.1,-827.8 -124,-246.3 -232.15,-450.14 -378.8,-633.59 -156.84,-187.98 -340.86,-377.1 -542.43,-467.12 -211.76,-99.65 -450.14,-130.23 -668.7,-83.23 -220.26,46.43 -452.4,234.41 -617.17,372.57 -165.33,128.53 -244.6,246.87 -379.36,426.36 -144.95,177.22 -334.06,393.52 -466.56,648.31 -137.02,254.8 -238.94,570.74 -352.75,868 -124.57,295.56 -273.48,560.55 -352.75,880.46 -83.8,311.98 -109.85,473.35 -126.27,978.41 -22.65,499.4 0,1149.98 11.89,1997.6 6.23,852.15 35.11,2044.59 39.07,3035.46 0,982.38 -10.19,1940.41 -14.16,2810.68 -4.53,866.3 -4.53,1630.69 0,2348.08 -55.49,67.38 -112.11,142.69 -163.07,234.41 -50.96,91.72 -104.18,185.72 -151.18,304.06 -34.54,-67.38 -71.34,-132.49 -101.92,-179.49 -32.27,-48.69 -58.89,-95.69 -87.76,-124.57 14.72,-708.9 26.61,-1434.78 36.8,-2232.01 14.16,-802.89 20.38,-1740.53 26.61,-2507.19 -3.96,-770.05 -43.03,-1237.17 -38.5,-2052.52 -4.53,-821.57 24.35,-2188.97 38.5,-2790.29 12.46,-595.09 20.38,-548.66 24.35,-770.61 -6.23,-230.45 -20.38,-435.98 -50.96,-578.67 -40.77,-148.91 -101.92,-169.3 -174.96,-289.9 -79.84,-122.3 -120.6,-219.69 -264.99,-428.06 -155.14,-214.03 -430.32,-619.44 -605.85,-839.69 -174.96,-228.18 -264.99,-383.33 -442.21,-495.44 -183.45,-117.77 -429.75,-185.15 -629.63,-193.64 -210.06,-14.16 -381.06,-11.89 -569.04,124.57 -187.36,134.76 -407.5,458.63 -542.03,689.08 -140.65,225.92 -199.76,429.75 -264.99,674.36 -65.23,242.9 -110.07,514.12 -126.38,758.72 -22.42,240.07 4.08,497.13 0,660.2 -8.15,146.65 -24.46,234.41 -48.92,262.72 -26.61,30.58 -67.38,-3.96 -114.26,-87.2l0.03 0z" />
  <path id="path79" class="fil1 str0" d="M6856.82 10168.5l-366.91 -482.98c-175.53,-34.54 -313.68,-49.26 -440.51,-26.61 -126.27,10.19 -248.57,99.65 -303.49,136.46 -58.89,36.8 -71.34,69.64 -36.8,97.95 202.14,69.08 399.75,128.53 593.39,177.22 193.64,43.03 370.87,75.31 554.32,97.95l0 0.01z" />
  <path id="path81" class="fil1 str0" d="M5595.13 9974.86c81.7,40.77 205.7,79.27 364.81,124.57 159.11,44.73 411.64,93.42 593.39,138.16 173.26,32.84 317.64,65.68 442.21,81.53l352.75 565.08c-381.63,-26.61 -701.54,-53.22 -984.64,-96.26 -287.64,-44.73 -529.97,-107.58 -705.33,-150.61 -179.38,-48.69 -285.37,-87.76 -340.41,-124.57 53,-122.3 105.99,-228.18 150.84,-317.64 44.84,-90.03 89.69,-163.07 126.38,-220.26z" />
  <path id="path83" class="fil2 str0" d="M12394.94 10953.27c-395.22,140.42 -754.19,301.79 -1098.45,482.98 -348.79,177.22 -670.96,377.1 -958.03,591.13 -295.56,207.8 -593.39,426.36 -783.07,662.47 -189.11,228.18 -336.33,460.9 -352.18,744 -24.91,281.41 97.39,668.7 225.92,950.1 126.27,279.14 283.67,503.36 518.08,703.23 228.18,193.64 580.93,360.68 845.92,454.67 260.46,87.2 603.02,99.65 704.93,83.23 85.5,-24.35 -3.96,-103.62 -150.61,-207.8 -148.91,-109.85 -519.78,-262.72 -719.66,-425.79 -203.84,-165.33 -393.52,-351.05 -491.47,-565.08 -103.62,-232.15 -152.88,-540.17 -113.81,-758.16 38.5,-214.03 183.45,-381.06 340.29,-509.59 150.61,-138.72 358.98,-256.49 568.48,-276.88 208.37,-18.68 442.78,85.5 656.81,178.92 203.84,87.76 348.22,238.94 566.21,358.98 218.56,112.11 479.02,211.76 719.66,330.1 234.41,120.6 421.83,289.33 681.15,373.13 250.27,71.34 527.71,105.88 831.2,81.53 -15.85,-226.48 -5.66,-434.28 39.07,-646.05 43.03,-217.99 132.49,-446.74 214.03,-607.55 75.31,-160.8 152.88,-272.91 240.64,-344.26 -97.95,-152.88 -171.56,-342.56 -228.75,-591.13 -58.89,-253.1 -93.42,-662.47 -111.54,-882.72 -20.38,-216.29 -20.38,-356.71 0,-413.9l-430.32 14.16c-40.77,226.48 -85.5,393.52 -112.11,523.75 -32.84,128.53 -24.35,214.03 -77.57,234.41 -61.15,4.53 -134.19,-95.69 -250.83,-164.77 -117.77,-69.64 -262.72,-144.95 -442.21,-234.41 -140.42,58.89 -271.22,134.19 -391.25,234.41 -126.27,95.69 -261.02,303.49 -340.29,356.71 -73.61,50.96 -118.34,58.89 -126.27,-54.92 -16.42,-124.57 -10.76,-346.52 26.05,-674.92l-0.02 0.02z" />
  <path id="path85" class="fil2 str0" d="M15081.62 12525.08c-105.88,-93.99 -183.45,-289.9 -240.64,-579.23 -61.15,-299.53 -120.04,-857.81 -99.65,-1172.06 18.12,-313.68 122.3,-546.39 225.92,-689.08 100.22,-142.69 279.71,-181.19 365.21,-178.92 81.53,-8.49 79.27,93.42 126.27,164.77 36.8,73.61 85.5,197.61 138.72,263.29 52.66,52.66 101.92,127.96 201.57,69.08 93.99,-61.15 220.26,-203.84 379.36,-428.06 46.43,193.64 28.31,415.6 -39.07,674.92 -79.27,262.72 -211.76,544.13 -388.99,868 -177.22,314.25 -397.48,642.08 -668.7,1007.29z" />
  <path id="path87" class="fil2 str0" d="M15346.6 12400.51c155.14,-230.45 301.79,-454.67 440.51,-689.08 134.19,-232.15 279.14,-485.24 378.8,-703.23 91.73,-230.45 155.14,-462.59 189.68,-633.59 30.58,-167.6 20.38,-293.86 -14.16,-371.43 124,-101.92 224.22,-156.84 291.6,-164.77 65.11,-14.16 105.88,32.27 113.81,109.85 -3.96,77.57 -99.65,240.64 -89.46,356.71 14.16,112.11 77.57,234.41 164.77,304.06 79.84,61.15 181.75,81.53 314.25,69.08 -118.34,272.91 -250.83,513.55 -389.55,729.85 -148.91,214.03 -297.26,395.22 -454.67,552.06 -156.84,148.91 -346.52,273.48 -466.56,356.71 -124.57,73.61 -203.84,112.11 -277.44,124.57 -81.53,10.19 -148.35,2.26 -201.57,-40.77l-0.01 -0.02z" />
  <path id="path89" class="fil2 str0" d="M16858.95 9824.25c93.99,22.08 165.33,95.69 214.03,219.69 47,122.3 65.11,289.9 63.42,509.59 -169.3,12.46 -271.22,-22.08 -328.4,-81.53 -57.19,-71.34 -20.38,-221.96 0,-303.49 20.38,-79.27 71.34,-126.27 90.03,-179.49 10.19,-58.89 -8.49,-113.81 -39.07,-164.77l-0.01 0z" />
  <path id="path91" class="fil2 str0" d="M15359.06 9795.37c105.88,-173.26 207.8,-281.41 327.84,-315.95 114.37,-36.8 293.86,26.61 365.21,95.69 66.81,65.68 77,159.11 38.5,289.9 -120.04,205.53 -220.26,334.06 -291.6,385.02 -73.04,48.69 -107.58,-40.77 -150.61,-95.69 -47,-69.64 -95.69,-216.29 -138.72,-275.18 -48.69,-59.45 -101.92,-90.03 -150.61,-83.8l-0.01 0.01z" />
  <path id="path93" class="fil2 str0" d="M15383.41 12620.77c195.34,-59.45 374.83,-59.45 554.32,0 177.22,58.89 348.79,171 505.63,344.26 144.38,167.03 293.3,442.21 391.25,660.77 97.95,215.73 171,415.6 189.68,621.7 7.93,201.57 -44.73,452.4 -126.27,578.67 -83.8,114.37 -234.41,156.84 -366.91,136.46 -140.99,-20.38 -289.33,-109.85 -454.67,-261.02 63.42,-236.11 73.61,-472.79 39.07,-717.39 -41.33,-248.57 -144.95,-517.52 -265.55,-744 -120.04,-228.18 -281.41,-432.02 -466.56,-619.44l0.01 -0.01z" />
  <path id="path95" class="fil2 str0" d="M15094.07 12620.77c-128.53,32.27 -257.06,289.33 -352.75,550.36 -104.18,264.99 -228.18,648.31 -216.29,992.57 12.46,338.59 161.37,768.35 304.06,992.57 138.16,203.84 364.64,285.37 529.97,275.18 156.84,-16.42 331.8,-163.07 439.95,-330.1 108.15,-167.03 185.72,-421.83 202.14,-662.47 10.19,-248.57 -71.34,-554.32 -151.18,-798.92 -89.46,-254.8 -240.64,-485.24 -364.64,-660.77 -134.76,-174.96 -264.99,-388.99 -391.25,-358.41l-0.01 -0.01z" />
  <path id="path97" class="fil1 str0" d="M10627.79 10239.85c124.57,-122.3 262.72,-220.26 415.6,-301.79 151.18,-85.5 318.21,-179.49 493.74,-179.49 168.73,-1.7 377.1,128.53 529.97,179.49 148.35,47 254.8,93.99 364.64,110.41 105.88,14.16 287.64,-8.49 277.44,-28.88 -24.91,-30.58 -222.52,-69.08 -365.21,-124 -146.65,-55.49 -313.68,-163.07 -454.67,-206.1 -140.42,-50.96 -321.61,-53.22 -378.8,-83.8 -63.42,-36.24 -53.22,-77 0,-122.3 44.73,-52.66 134.19,-79.27 276.88,-167.03 138.72,-89.46 328.4,-205.53 569.04,-356.71 132.49,189.68 252.53,375.4 352.75,564.51 101.92,185.72 183.45,369.17 252.53,550.36 -83.23,93.99 -148.91,198.17 -225.92,304.06 -75.87,108.15 -144.95,210.06 -216.29,330.1 -268.95,-50.96 -519.78,-105.88 -768.35,-165.33 -252.53,-66.81 -518.08,-156.84 -707.2,-205.53 -189.68,-53.22 -328.4,-85.5 -416.17,-97.95l0.02 -0.02z" />
  <path id="path99" class="fil1 str0" d="M12747.69 8751.84c114.37,-50.96 285.37,-73.61 529.97,-67.38 238.38,10.19 670.39,44.73 919.53,95.69 244.6,36.8 403.14,71.34 556.02,151.18 152.88,73.04 259.32,177.22 340.86,303.49l0 538.47c-96.26,65.11 -173.26,138.16 -240.64,219.69 -69.64,83.8 -114.37,163.07 -151.18,261.02 -130.23,-173.26 -275.18,-285.37 -442.21,-358.41 -177.22,-73.61 -401.44,-67.38 -554.32,-67.38 -148.91,-2.26 -264.99,3.96 -340.29,40.77 -100.22,-240.64 -203.84,-444.48 -304.06,-634.16 -105.88,-187.42 -207.8,-348.22 -313.68,-482.98z" />
  <path id="path101" class="fil1 str0" d="M12986.07 8531.59c387.29,-271.22 746.27,-511.29 1099.02,-729.85 348.22,-223.99 698.71,-456.37 996.53,-578.67 293.3,-120.26 507.33,-142.69 744,-138.61 220.26,2.04 366.91,42.81 629.63,138.61 267.25,89.69 579.23,220.14 958.03,399.52 -44.73,289.56 -101.92,525.67 -187.42,717.62 -85.5,181.19 -174.96,297.26 -315.95,411.64 -146.65,116.07 -279.14,206.1 -554.32,277.44 -283.11,62.85 -652.28,103.62 -1123.36,122.3 -93.42,-128.53 -232.15,-226.48 -415.6,-315.95 -187.42,-91.73 -393.52,-152.88 -695.31,-206.1 -309.72,-53.22 -680.59,-85.5 -1135.25,-97.95z" />
  <path id="path103" class="fil1 str0" d="M15232.23 9304.47l-11.89 413.33 99.65 12.46c54.92,-128.53 126.27,-226.48 214.03,-301.79 85.5,-81.53 207.8,-138.72 304.06,-138.72 89.46,4.53 171,65.68 252.53,151.18 77.57,77.57 152.88,283.11 226.48,317.64 75.31,26.61 146.65,-105.88 214.03,-138.16 61.15,-36.8 99.65,-57.19 138.16,-69.64 53.22,-75.31 104.18,-148.91 152.88,-220.26 45.3,-75.31 90.03,-148.35 126.83,-219.69 130.23,10.19 268.95,-28.88 415.6,-124.57 138.72,-101.92 268.95,-267.25 454.67,-440.51 187.42,-181.19 537.9,-452.4 666.43,-592.82 126.27,-140.99 144.95,-216.29 77.57,-234.41 128.53,-97.95 289.33,-250.83 490.91,-481.17 202.14,-236.45 513.55,-648.2 693.04,-882.61 173.26,-234.41 275.18,-383.21 328.4,-509.59 47,-128.42 30.58,-218.1 -48.69,-260.91 48.69,-101.92 124,-207.91 225.92,-317.98 104.18,-118.23 285.37,-230.33 379.36,-358.75 89.46,-132.49 168.73,-377.1 150.61,-411.75 -34.54,-38.73 -262.72,187.53 -291.6,191.61 -26.61,0 189.68,-163.07 152.88,-191.61 -42.47,-32.61 -205.53,-32.61 -378.8,0 -181.75,26.5 -511.86,108.03 -668.7,165.11 -152.88,48.92 -248.57,101.92 -264.99,150.84 177.22,50.96 326.14,81.53 454.67,83.57 126.27,0 197.61,-28.54 301.22,-69.3 100.22,-46.88 273.48,-197.72 291.6,-193.64 8.49,2.04 -105.88,156.95 -201.57,220.14 -95.69,59.11 -218.56,97.84 -366.91,124.34 -10.19,175.3 -22.65,285.37 -36.8,330.21 -22.08,42.81 -40.77,-24.46 -62.85,-67.27 -22.65,-48.92 -8.49,-165.11 -75.87,-207.91 -77,-40.77 -250.27,-59.11 -354.45,-55.04 -108.15,-6.12 -197.61,6.12 -277.44,28.54 -174.96,63.19 -385.02,144.72 -629.63,275.18 -248.57,122.3 -528.28,281.29 -845.92,468.82 215.73,79.5 417.86,136.57 605.28,179.38 183.45,38.73 322.17,79.5 518.08,67.27 193.64,-22.42 472.79,-114.15 656.24,-165.11 181.19,-59.11 415.6,-156.95 428.06,-136.57 3.96,22.42 -224.22,197.72 -379.36,275.18 -163.07,67.27 -344.26,120.26 -566.78,150.84 47,177.34 61.15,340.41 50.96,497.36 -15.85,156.95 -116.07,423.98 -126.27,440.29 -14.16,2.04 63.42,-228.3 50.96,-385.25 -14.16,-156.95 -62.85,-338.37 -138.72,-552.4 -150.61,-24.46 -326.14,-48.92 -541.86,-81.53 -216.29,-32.61 -464.86,-69.3 -746.27,-110.07 -248.57,97.84 -472.79,191.61 -680.59,289.45 -210.06,93.76 -389.55,156.95 -554.32,275.18 -171.56,112.11 -320.48,252.76 -454.67,413.79 150.61,-40.77 340.29,-34.65 568.48,26.5 226.48,59.11 566.78,234.41 793.26,330.21 225.92,91.73 352.18,189.57 544.13,222.18 181.19,20.38 377.1,-6.12 554.32,-57.07 173.26,-55.04 413.9,-224.22 479.02,-232.37 54.92,-16.31 -12.46,101.92 -114.37,165.11 -105.88,65.23 -326.14,154.92 -479.02,205.87 -154.58,46.88 -301.22,67.27 -439.95,69.3 -24.35,236.22 -83.8,442.32 -177.22,648.43 -101.92,199.31 -236.68,401.44 -403.71,550.36 -175.53,140.42 -405.97,234.41 -605.28,303.49 -203.84,53.22 -389.55,58.89 -580.93,81.53 -189.68,30.58 -377.1,50.96 -554.89,83.8l0 -0.02z" />
  <path id="path105" class="fil0 str0" d="M13856.33 8132.41c-56.62,14.16 -309.72,160.8 -340.29,219.69 -34.54,49.26 39.07,81.53 165.33,97.95 126.27,10.19 580.93,-1.7 592.82,-14.16 0,-14.16 -479.02,-32.84 -556.02,-54.92 -73.61,-24.35 73.04,-59.45 101.92,-95.69 20.38,-43.03 87.2,-167.6 36.24,-152.88l0 0.01z" />
  <path id="path107" class="fil0 str0" d="M16404.29 6534.1c-38.5,-2.04 -279.14,118.23 -289.33,165.11 -7.93,40.77 220.26,93.76 253.1,95.8 30.58,-2.04 -71.34,-55.04 -63.42,-95.8 3.96,-46.88 126.27,-167.15 99.65,-165.11z" />
  <path id="path109" class="fil0 str0" d="M18070.08 5625c-75.87,36.69 -118.34,63.19 -112.11,95.8 5.66,22.42 113.81,46.88 150.61,40.77 26.61,-16.31 -7.93,-71.34 36.8,-110.07 44.73,-42.81 236.11,-120.26 228.18,-122.3 -20.38,0 -234.41,53 -303.49,95.8l0.01 0z" />
  <path id="path111" class="fil1 str0" d="M9441.58 10471.99c421.83,-321.61 778.54,-576.4 1086.56,-772.31 297.26,-195.91 462.59,-234.41 731.55,-399.75 268.95,-177.22 550.36,-370.87 868.57,-619.44l113.81 206.1c-307.45,163.07 -582.63,341.99 -857.81,537.9 -275.18,197.61 -533.94,440.51 -768.35,634.16 -240.64,187.42 -397.48,279.14 -644.35,494.87 -248.57,212.33 -526.01,454.67 -831.77,758.72 32.84,-155.14 77.57,-301.79 126.83,-440.51 48.69,-142.69 109.85,-272.91 174.96,-399.75l0 0.01z" />
  <path id="path113" class="fil1 str0" d="M12621.43 8391.17c434.28,-332.37 892.92,-660.77 1400.24,-992.8 509.59,-342.44 1066.18,-693.04 1614.27,-1004.91 538.47,-315.95 1072.41,-595.2 1602.38,-854.07 523.75,-264.99 1108.64,-515.71 1526.51,-688.97 416.17,-173.26 660.77,-258.87 946.14,-344.48 279.14,-95.8 755.89,-209.95 731.55,-193.64 -32.84,12.23 -658.5,189.57 -909.34,289.45 -260.46,89.69 -160.8,73.38 -605.28,289.45 -450.14,216.07 -1414.4,678.77 -2042.33,1019.18 -623.97,336.33 -1070.14,599.28 -1691.84,992.68 -638.12,393.4 -1634.65,1033.45 -2054.78,1322.78 -417.86,273.48 -562.25,383.33 -442.21,330.1 -24.35,-54.92 -48.69,-109.85 -75.31,-164.77z" />
  <path id="path115" class="fil1 str0" d="M10678.75 7991.42c116.07,-391.25 238.38,-727.58 391.25,-1033.34 146.65,-307.79 362.94,-595.2 491.47,-784.77 120.04,-193.64 183.45,-307.79 252.53,-358.75 69.64,-53 130.79,-34.65 175.53,55.04 381.06,-373.02 707.2,-662.47 1008.99,-868.34 293.3,-209.95 583.2,-299.64 758.16,-370.98 163.07,-79.5 197.61,-81.53 253.1,-69.3 54.92,10.19 77,53 75.31,136.57 287.07,-277.22 595.09,-481.05 945.57,-619.66 346.52,-140.65 878.76,-183.45 1123.36,-205.87 236.11,-22.42 242.34,14.27 301.79,55.04 50.96,30.58 54.92,83.57 11.89,150.84 226.48,-61.15 477.32,-99.88 783.07,-124.34 301.22,-30.58 737.77,-28.54 1008.99,-26.5 258.76,0 456.37,8.15 568.48,40.77 108.15,26.5 87.76,93.76 87.76,138.61 -8.49,38.73 -53.22,101.92 -101.92,110.07 -50.96,0 -79.84,-57.07 -187.98,-69.3 -117.77,-12.23 -346.52,-22.42 -480.71,-14.27 -136.46,0 -234.41,-10.19 -326.14,40.77 -95.69,44.84 -173.26,130.46 -240.64,248.68 -26.61,-67.27 -81.53,-114.15 -165.33,-124.34 -93.42,-18.35 -323.87,24.46 -352.18,42.81 -22.65,14.27 136.46,36.69 201.57,67.27 54.92,24.46 136.46,12.23 150.61,97.84 6.23,77.46 -28.31,242.57 -87.2,385.25 -63.42,136.57 -152.88,320.02 -277.44,440.29 -130.23,110.07 -272.91,142.69 -491.47,262.95 -224.22,124.34 -499.4,275.18 -833.46,468.82 104.18,-211.99 189.68,-393.4 240.64,-566.66 44.73,-173.26 30.58,-322.06 75.31,-454.55 43.03,-134.53 50.96,-254.8 189.68,-344.48 132.49,-93.76 509.59,-156.95 605.28,-205.87 85.5,-53 16.42,-118.23 -50.96,-110.07 -79.27,4.08 -250.83,87.65 -364.64,124.34 -120.6,30.58 -220.26,16.31 -291.6,67.27 -69.64,42.81 -104.18,112.11 -112.11,207.91 -47,-130.46 -83.8,-197.72 -101.92,-179.38 -24.35,16.31 -14.16,114.15 -24.35,260.91 -14.72,146.76 22.08,350.6 -39.07,578.89 -62.85,222.18 -179.49,458.63 -340.29,731.77 -267.25,177.34 -505.63,340.41 -707.2,481.05 -203.84,134.53 -299.53,201.8 -515.82,358.75 -228.18,158.99 -493.17,344.48 -819.31,578.89 220.26,-401.56 388.99,-766.42 515.82,-1102.75 124,-340.41 197.61,-638.01 228.18,-909.11 95.69,-185.49 217.99,-340.41 388.99,-495.32 163.07,-156.95 402.01,-326.14 605.85,-413.79 201.57,-91.73 505.06,-93.76 580.93,-124.34 65.11,-40.77 -40.77,-99.88 -175.53,-83.57 -142.69,12.23 -454.67,79.5 -644.35,179.38 -195.34,95.8 -364.64,271.1 -490.91,399.52 -128.53,122.3 -214.03,230.33 -264.99,332.25 -71.34,-122.3 -120.6,-173.26 -138.72,-152.88 -24.35,16.31 24.35,122.3 12.46,262.95 -14.72,126.38 -14.72,264.99 -101.92,550.36 -93.99,291.49 -334.63,878.53 -454.67,1172.06 -124.57,287.41 -214.03,460.67 -277.44,536.09l-794.96 537.9c-58.89,-99.65 -124,-185.15 -225.92,-248.57 -97.95,-67.38 -222.52,-120.04 -365.21,-150.61 226.48,-605.51 436.55,-1064.14 630.19,-1406.58 189.11,-342.44 364.64,-462.71 517.52,-619.66 146.65,-158.99 228.18,-220.14 377.1,-315.95 146.65,-103.96 464.86,-209.95 505.63,-262.95 28.31,-57.07 -148.91,-91.73 -289.33,-40.77 -140.99,55.04 -366.91,195.68 -544.7,358.75 -185.15,158.99 -358.41,344.48 -541.86,578.89 -140.99,-101.92 -226.48,-152.88 -264.99,-152.88 -36.8,0 10.19,75.42 38.5,138.61 20.38,50.96 124.57,55.04 100.22,193.64 -26.61,138.61 -147.22,360.79 -250.83,619.66 -112.11,252.76 -246.87,536.09 -403.71,880.35 -203.84,-46.43 -364.64,-65.11 -505.63,-54.92 -138.72,8.49 -240.64,71.34 -327.84,110.41 -97.95,30.58 -165.33,61.15 -226.48,83.23l0 -0.03z" />
  <path id="path117" class="fil0 str0" d="M14160.39 6544.3c-28.88,20.38 -224.22,387.29 -201.57,440.29 19.82,48.92 242.34,-73.38 327.84,-122.3 79.27,-55.04 195.91,-175.3 175.53,-179.38 -24.35,-8.15 -228.18,138.61 -289.33,165.11 -63.42,24.46 -75.87,32.61 -75.87,-14.27 -1.7,-55.04 81.53,-313.91 63.42,-289.45l-0.02 0z" />
  <path id="path119" class="fil0 str0" d="M16063.99 5565.88c-10.19,12.23 -77.57,191.61 -36.24,207.91 38.5,6.12 252.53,-105.99 264.99,-124.34 5.66,-16.31 -181.75,34.65 -216.29,26.5 -36.8,-22.42 -12.46,-124.34 -12.46,-110.07z" />
  <path id="path121" class="fil1 str0" d="M18600.06 4285.79c-118.34,-59.11 -236.68,-89.69 -377.1,-83.57 -147.22,-4.08 -340.86,32.61 -454.67,110.07 -116.07,79.5 -159.11,228.3 -214.03,358.75 -58.89,122.3 -85.5,299.64 -126.27,399.52 -47,97.84 -81.53,165.11 -126.27,193.64 275.18,-95.8 509.59,-183.45 719.66,-262.95 203.84,-81.53 391.25,-136.57 515.25,-220.14 124.57,-95.8 195.91,-238.49 214.03,-317.98 6.23,-85.61 -36.8,-144.72 -150.61,-177.34l0.01 0z" />
  <path id="path123" class="fil0 str0" d="M17629.57 4836.15c-18.12,2.04 -73.61,152.88 -63.42,193.64 10.19,34.65 65.68,40.77 126.83,26.5 54.92,-18.35 217.99,-120.26 214.03,-124.34 -12.46,-12.23 -218.56,99.88 -264.99,83.57 -50.96,-18.35 0,-185.49 -12.46,-179.38l0.01 0.01z" />
  <path id="path125" class="fil1 str0" d="M19079.07 4092.15c0,30.58 -16.42,65.23 -49.26,95.8 -38.5,26.5 -93.42,57.07 -164.77,83.57 0,108.03 -4.53,197.72 -12.46,260.91 -7.93,65.23 -32.84,103.96 -50.96,124.34 369.17,-110.07 666.43,-199.76 909.34,-260.91 236.11,-69.3 364.64,-99.88 517.52,-124.34 151.18,-26.5 383.33,-2.04 389.55,-28.54 -2.26,-38.73 -189.68,-148.8 -389.55,-165.11 -210.06,-22.42 -613.21,50.96 -809.12,55.04 -191.95,4.08 -308.02,-12.23 -340.29,-40.77l0 0.01z" />
  <path id="path127" class="fil1 str0" d="M8597.36 11312.25l340.86 -909.34c-35.11,-1620.5 -67.38,-2935.24 -75.87,-4023.73 -14.16,-1082.37 -14.16,-1805.99 0,-2437.88 10.19,-635.97 24.91,-1082.37 50.96,-1355.51l-493.17 -55.04c-65.11,1282.13 -99.65,2421.57 -112.11,3473.37 -16.42,1049.76 28.88,2001.45 49.26,2770.36 18.12,754.19 58.89,1343.05 75.31,1744.5 16.42,393.52 -18.68,497.7 14.16,634.16 24.35,130.23 77.57,183.45 150.61,159.11l-0.01 0z" />
  <path id="path129" class="fil1 str0" d="M7865.81 10402.92c40.77,-283.11 67.38,-597.35 87.76,-964.26 16.42,-370.87 50.96,-819.31 26.61,-1212.83 -35.11,-401.44 -142.69,-853.96 -189.68,-1129.14 -49.26,-273.14 -57.19,-415.83 -87.76,-483.09 -32.84,-71.34 -73.61,-53 -114.37,55.04 -81.53,-358.75 -171,-638.01 -276.88,-854.07 -114.37,-224.22 -273.48,-370.98 -366.91,-440.29 -91.73,-69.3 -151.18,-53 -177.22,40.77 7.93,-134.53 -39.07,-287.41 -163.07,-483.09 -128.53,-195.68 -440.51,-527.94 -566.78,-674.7 -132.49,-154.92 -148.91,-191.61 -189.68,-220.14 -40.77,-32.61 -67.38,-26.5 -63.42,26.5 -191.32,-301.68 -356.43,-519.78 -478.73,-646.16 -126.38,-130.46 -171.22,-69.3 -277.22,-124.34 -118.23,-63.19 -244.6,-136.57 -379.14,-220.14 -136.57,-91.73 -322.06,-285.37 -415.83,-297.6 -99.88,-18.35 -154.92,50.96 -165.11,207.91 -114.15,-40.77 -248.68,-110.07 -403.6,-207.91 -165.11,-101.92 -391.37,-322.06 -529.97,-385.25 -136.57,-65.23 -226.26,-65.23 -277.22,0 -110.07,-85.61 -234.41,-142.69 -364.87,-179.38 -134.53,-36.69 -275.18,-53 -430.09,-40.77 85.61,89.69 163.07,197.72 240.53,315.95 79.5,118.23 140.65,254.8 214.03,401.56 91.73,-83.57 118.23,-154.92 101.92,-222.18 -18.35,-73.38 -220.14,-148.8 -228.3,-179.38 -16.31,-36.69 87.65,-30.58 138.61,-12.23 48.92,18.35 87.65,57.07 138.61,124.34 71.34,-28.54 134.53,-28.54 189.57,0 50.96,22.42 136.57,150.84 138.61,165.11 -6.12,6.12 -103.96,-99.88 -150.84,-97.9 -48.92,4.08 -93.76,50.96 -126.38,110.07 -34.65,53 -57.07,122.3 -75.42,207.91 101.92,199.76 232.37,434.17 391.37,703.23 158.99,271.1 338.37,568.7 554.43,909.11 53,-291.49 75.42,-534.05 50.96,-744 -24.46,-207.91 -105.99,-356.71 -189.57,-509.59 -99.88,-165.11 -334.29,-423.98 -340.41,-454.55 6.12,-32.61 240.53,161.03 340.41,275.18 85.61,108.03 148.8,236.45 189.57,385.25 83.57,-63.19 165.11,-99.88 252.76,-110.07 83.57,-18.35 169.18,-10.19 264.99,40.77 93.76,50.96 301.68,260.91 301.68,275.18 -10.19,4.08 -203.84,-205.87 -328.18,-220.14 -124.34,-14.27 -258.87,24.46 -403.6,124.34 38.73,150.84 65.23,301.68 63.19,483.09 2.04,175.3 -24.46,360.79 -63.19,564.63 55.04,154.92 193.64,397.48 415.83,744 222.19,346.52 519.78,772.54 909.11,1308.63 71.34,-489.21 116.19,-874.46 126.38,-1172.06 8.15,-301.68 -18.35,-401.56 -63.19,-605.39 -46.88,-209.95 -146.76,-450.48 -228.3,-619.66 -91.73,-175.3 -299.64,-358.75 -301.68,-385.25 -6.12,-24.46 197.72,126.38 289.45,232.37 85.61,99.88 185.49,195.68 252.76,358.75 63.19,158.99 112.05,344.48 138.61,578.89 97.84,-30.58 187.53,-55.04 277.22,-81.53 83.57,-30.58 154.75,-105.99 252.7,-69.3 97.95,40.77 323.87,252.76 340.29,289.45 12.46,24.46 -179.49,-95.8 -252.53,-124.34 -81.53,-32.61 -126.27,-77.46 -214.03,-55.04 -95.86,16.31 -197.78,71.34 -328.23,165.11 -6.12,209.95 -34.65,448.44 -63.19,715.47 -38.73,264.99 -77.46,556.47 -138.61,882.61 173.26,287.41 348.56,578.89 541.92,882.44 187.98,304.06 385.59,601.32 593.39,923.49 0,-167.03 14.16,-334.06 50.96,-509.59 30.58,-181.19 101.92,-295.56 150.61,-538.07 45.3,-250.72 108.15,-686.93 126.83,-923.38 15.85,-242.57 3.96,-315.95 -36.8,-495.32 -59.45,-181.41 -273.48,-552.4 -264.99,-578.89 11.89,-26.5 246.3,240.53 326.14,399.52 71.34,148.8 95.69,313.91 89.46,495.32 110.41,-34.65 203.84,-34.65 289.33,0 81.53,32.61 203.84,173.26 202.14,193.64 -8.49,8.15 -169.3,-87.65 -238.38,-97.84 -81.53,-18.35 -147.22,-59.11 -203.84,42.81 -57.19,105.99 -96.26,366.91 -124.57,578.89 -26.61,205.87 -18.12,468.65 -38.5,646.44 -35.11,168.73 -87.76,219.69 -126.83,372.57 -32.27,147.22 -69.08,314.25 -87.2,509.59l252.53 503.93c95.69,-4.53 207.8,32.27 328.4,109.85 116.07,77.57 248.57,193.64 388.99,356.71 -18.12,-360.68 -16.42,-642.08 14.16,-866.3 28.88,-224.22 118.34,-277.44 151.18,-456.37 24.35,-189.68 79.27,-393.52 24.35,-620 -61.15,-234.36 -328.4,-631.84 -352.75,-729.68 -22.08,-95.8 140.99,59.11 214.03,165.11 63.42,99.88 122.3,246.64 177.22,440.29 138.72,73.32 214.03,124.28 226.48,153.16 6.23,24.35 -134.76,7.93 -163.07,14.16 -28.31,1.7 -28.31,1.7 0,0 28.31,287.07 28.31,519.78 0,689.08 -30.58,168.73 -152.88,105.88 -177.22,330.1 -28.88,225.92 -24.35,544.13 11.89,992.57 126.83,183.45 253.1,366.91 379.36,550.36l0.02 -0.04z" />
  <path id="path131" class="fil0 str0" d="M6212.48 7811.93c12.46,30.58 -28.31,281.41 -50.96,344.82 -28.31,52.66 -58.89,32.27 -99.65,-14.16 -47,-55.49 -167.03,-267.25 -163.07,-289.9 2.26,-30.58 118.34,147.22 175.53,138.72 50.96,-11.89 117.77,-205.53 138.16,-179.49l-0.01 0.01z" />
  <path id="path133" class="fil0 str0" d="M4686.02 5938.9c10.19,40.77 191.61,332.25 252.76,301.68 57.07,-42.81 97.84,-499.4 89.69,-536.09 -16.31,-36.69 -108.03,258.87 -165.11,303.72 -63.19,36.69 -187.53,-112.11 -177.34,-69.3l0 -0.01z" />
  <path id="path135" class="fil0 str0" d="M3363.13 4063.61c2.04,30.58 146.76,189.57 175.3,193.64 20.38,-4.08 4.08,-163.07 -24.46,-193.64 -36.69,-34.65 -152.88,-34.65 -150.84,0z" />
  <path id="path137" class="fil1 str0" d="M2062.65 2269.85c93.76,181.41 175.3,324.1 228.3,428.06 50.96,99.88 89.69,169.18 99.88,191.61 -71.34,14.27 -128.42,-4.08 -163.07,-55.04 -42.81,-57.07 -42.81,-248.68 -63.19,-260.91 -24.46,-14.27 -57.07,116.19 -50.96,179.38 0,57.07 30.58,112.11 75.42,165.11 -32.61,71.34 -44.84,128.42 -36.69,179.38 2.04,44.84 61.15,132.49 75.42,122.3 4.08,-16.31 -46.88,-169.18 -12.23,-191.61 34.65,-26.5 128.42,-34.65 226.26,55.04 99.88,87.65 207.91,256.83 340.41,468.82 120.26,209.95 250.72,456.59 391.37,770.5 -173.26,-95.8 -311.87,-156.95 -415.83,-191.61 -105.99,-36.69 -175.3,-38.73 -216.07,-14.27 -103.96,-2.04 -179.38,-57.07 -226.26,-165.11 -46.88,-112.11 -46.88,-466.78 -63.19,-497.36 -28.54,-30.58 -79.5,201.8 -75.42,303.72 8.15,95.8 57.07,183.45 99.88,262.95 34.65,69.3 75.42,124.34 114.15,165.11 -50.96,53 -91.73,114.15 -114.15,205.87 -26.5,85.61 -57.07,303.72 -36.69,315.95 16.31,4.08 71.34,-187.53 126.38,-260.91 48.92,-71.34 73.38,-154.92 175.3,-165.11 105.99,-14.27 283.33,6.12 430.09,69.3 142.69,57.07 230.33,108.03 403.6,301.68 165.11,193.64 360.79,509.59 578.89,868.34 211.99,352.64 432.13,770.5 682.85,1253.59 -163.07,-65.23 -356.71,-120.26 -605.39,-165.11 -250.72,-44.84 -640.05,-44.84 -870.38,-110.07 -234.41,-75.42 -401.56,-185.49 -517.74,-330.21 -118.23,-148.8 -140.65,-377.1 -177.34,-550.36 -44.84,-183.45 -38.73,-387.29 -75.42,-509.59 -48.92,-128.42 -152.88,-267.03 -163.07,-234.41 -8.15,26.5 91.73,234.41 126.38,411.75 30.58,173.26 24.46,479.02 61.15,633.93 30.58,146.76 48.92,171.22 140.65,277.22 85.61,105.99 218.1,222.18 389.33,356.71 -120.26,32.61 -187.53,105.99 -201.8,220.14 -14.27,110.07 89.69,442.32 114.15,454.55 10.19,6.12 -48.92,-307.85 -12.23,-399.52 40.77,-93.76 93.76,-148.8 252.76,-165.11 156.95,-30.58 387.29,-28.54 668.58,14.27 277.22,44.84 593.16,122.3 970.26,248.68 211.99,269.06 399.52,546.28 593.16,839.69 185.49,295.56 438.42,747.97 530.14,909.34 87.2,146.65 87.2,142.69 0,-12.46 -257,-97.95 -499.57,-154.58 -719.71,-179.49 -226.26,-22.08 -421.94,20.38 -617.62,26.61 -203.84,0 -397.48,12.46 -580.93,-40.77 -185.49,-65.11 -373.02,-167.03 -515.71,-330.1 -146.76,-169.3 -293.52,-589.09 -354.68,-662.47 -65.23,-75.42 -77.46,99.88 -36.69,220.26 34.65,116.07 148.8,342.56 264.99,482.98 116.19,136.46 277.22,246.87 428.06,330.1 142.69,77.57 283.33,116.07 430.09,124.57 -61.15,99.65 -85.61,181.19 -89.69,275.18 -4.08,79.27 28.54,164.77 75.42,248.57 40.77,93.99 103.96,175.53 189.57,275.18 85.61,85.5 185.49,171 315.95,248.57 -57.07,28.88 -93.76,67.38 -101.92,124.57 -10.19,54.92 10.19,199.87 38.73,205.53 16.31,-3.96 10.19,-163.07 99.88,-193.64 91.73,-24.35 236.45,-22.08 442.38,28.88 -71.34,85.5 -118.23,171 -163.07,248.57 -46.88,81.53 -69.3,144.95 -89.69,220.26 -379.14,-118.34 -617.62,-222.52 -731.77,-304.06 -112.11,-85.5 -93.76,-156.84 63.19,-205.53 -283.33,-101.92 -523.86,-244.6 -744,-428.06 -224.22,-193.64 -434.17,-499.4 -566.66,-689.08 -138.61,-199.87 -220.14,-346.52 -228.3,-440.51 -8.15,-87.2 55.04,-117.77 189.57,-83.23 -328.18,-468.82 -548.32,-821.57 -668.58,-1074.33 -122.3,-258.87 -136.57,-395.44 -50.96,-440.29 -99.88,-273.14 -171.22,-509.59 -214.03,-717.5 -44.84,-209.95 -77.46,-432.13 -50.96,-523.86 22.42,-93.76 89.69,-110.07 201.8,-40.77 -67.27,-242.57 -110.07,-511.63 -150.84,-799.04 -38.73,-295.56 -87.65,-741.96 -75.42,-937.65 10.19,-197.72 46.88,-273.14 126.38,-234.41 -36.69,-126.38 -50.96,-254.8 -50.96,-385.25 0,-134.53 14.27,-264.99 50.96,-399.52 -30.58,-89.69 -38.73,-163.07 -24.46,-220.14 14.21,-61.15 48.86,-99.88 112.05,-124.34l-0.01 -0.01z" />
  <path id="path139" class="fil0 str0" d="M3980.75 6348.61c26.5,26.5 317.98,132.49 340.41,81.53 14.27,-71.34 -220.14,-411.75 -240.53,-440.29 -22.42,-22.42 101.92,238.49 89.69,303.72 -18.35,53 -220.14,34.65 -189.57,55.04z" />
  <path id="path141" class="fil0 str0" d="M2794.42 3827.16c28.54,4.08 69.3,152.88 50.96,179.38 -28.54,26.5 -183.45,-4.08 -189.57,-28.54 -10.19,-36.69 103.96,-152.88 138.61,-150.84z" />
  <path id="path143" class="fil0 str0" d="M5203.77 8071.26c50.96,73.04 285.37,268.95 240.53,303.49 -53,24.35 -489.21,-95.69 -529.97,-124.57 -44.84,-30.58 224.22,8.49 264.99,-40.77 30.58,-58.89 -71.34,-238.38 -63.19,-262.72 4.08,-20.38 30.58,44.73 87.65,124.57l-0.01 0z" />
  <path id="path145" class="fil1 str0" d="M6188.13 9159.52l-276.88 -330.1c-267.2,-91.73 -509.76,-148.91 -744.17,-179.49 -240.53,-34.54 -493.28,-26.61 -656.35,0 -165.11,24.35 -246.64,69.08 -291.49,150.61 -46.88,77.57 -18.35,191.95 38.73,318.21 48.92,116.07 134.53,301.79 289.45,399.75 163.07,93.42 368.94,148.35 656.35,164.77 112.11,-177.22 250.72,-315.95 415.83,-399.18 167.09,-86.06 346.58,-132.49 568.53,-124.57z" />
  <path id="path147" class="fil1 str0" d="M3605.69 17932.4c163.07,-20.38 317.98,-54.92 464.75,-103.62 142.69,-54.92 303.72,-128.53 403.6,-195.91 91.73,-71.34 152.88,-144.38 167.15,-220.26 73.38,151.18 169.18,269.52 295.56,362.94 128.42,93.99 232.37,163.07 452.52,183.45 209.95,8.49 476.69,-28.31 809.06,-118.34 268.95,187.98 479.02,377.1 630.19,585.46 150.61,201.57 229.88,413.33 260.46,635.86 40.77,-69.64 86.06,-49.26 142.69,52.66 53.22,100.22 179.49,191.95 191.95,558.85 7.93,366.91 -32.84,907.07 -130.79,1636.35l-582.63 -545.83c-110.41,-499.4 -183.45,-876.5 -250.83,-1155.64 -69.08,-281.41 -128.53,-395.78 -130.23,-507.89 -8.49,-124 24.35,-210.06 105.88,-193.64 79.27,22.65 342.56,297.83 381.06,297.83 36.8,-14.16 -77.57,-279.71 -155.14,-362.94 -83.23,-81.53 -191.38,-136.46 -331.8,-142.69 -65.68,-161.37 -144.95,-293.86 -238.94,-389.55 -101.92,-99.65 -319.91,-229.88 -331.8,-195.34 -6.23,26.61 209.5,242.34 285.37,364.64 71.34,118.34 116.07,232.15 142.69,350.49 -47,18.68 -43.03,167.03 11.89,454.67 49.26,285.37 151.18,694.74 297.83,1245.1 -487.51,-480.71 -882.67,-857.81 -1202.69,-1155.64 -320.02,-299.53 -548.32,-494.87 -701.2,-609.24 -77.46,-479.02 -132.49,-768.35 -165.11,-884.99 -38.73,-113.81 -40.77,61.15 -36.69,195.91 0,126.27 18.35,309.72 46.88,558.28 -173.26,-154.58 -322.06,-289.33 -462.71,-403.14 -142.69,-122.3 -262.95,-214.03 -368.94,-297.83l-0.03 0z" />
  <path id="path149" class="fil2 str0" d="M6220.97 15451.83c99.65,-54.92 148.91,-130.23 154.58,-234.41 2.26,-103.62 -38.5,-236.11 -130.23,-388.99 108.15,-147.22 201.57,-289.9 272.91,-428.06 71.34,-138.72 120.6,-273.48 155.14,-403.71 362.94,97.95 648.31,242.34 856.11,442.21 206.1,189.68 319.91,435.98 381.06,740.04 53.22,309.72 16.42,717.39 -47,1090.52 -71.34,368.6 -215.73,821.57 -346.52,1090.52 -134.19,266.69 -392.95,466.56 -438.25,480.71 -44.73,4.53 101.92,-228.18 165.33,-454.1 54.92,-234.41 181.19,-646.61 167.03,-921.79 -26.61,-283.11 -169.3,-562.25 -285.37,-727.58 -122.3,-164.77 -250.83,-225.92 -393.52,-246.3 -144.38,-24.91 -283.11,14.16 -439.95,116.07 -22.65,-50.96 -47,-101.92 -71.34,-155.14l0.02 0.01z" />
  <path id="path151" class="fil1 str0" d="M10574.57 8584.81l0 908.77 546.39 -364.64c173.26,-472.79 281.41,-737.77 332.37,-817.61 47,-73.04 -34.54,232.71 -47,351.05 -18.12,112.11 -95.69,279.14 -58.89,311.42 32.27,20.38 128.53,-81.53 248.57,-156.84 118.34,-75.31 254.8,-177.22 440.51,-297.26 -137.02,-163.07 -267.25,-267.25 -416.17,-311.98 -146.65,-47 -340.29,10.19 -462.59,38.5 -128.53,24.35 -216.29,54.92 -309.72,116.07 -101.92,57.19 -185.72,128.53 -273.48,222.52l0.01 0z" />
  <path id="path153" class="fil1 str0" d="M6626.38 9732.52c71.34,-18.68 152.88,5.66 244.6,65.11 87.76,54.92 165.33,132.49 295.56,295.56 126.27,164.77 305.75,434.28 475.05,680.59 163.07,238.38 393.52,550.36 501.66,746.27 99.65,189.68 134.19,315.95 103.62,387.29 -197.61,-283.67 -403.71,-560.55 -617.74,-862.34 -224.22,-305.75 -499.4,-703.23 -668.13,-925.19 -171.56,-222.52 -275.18,-348.79 -334.63,-387.29l0.01 0z" />
  <path id="path155" class="fil1 str0" d="M6445.19 9153.29c-309.72,-519.78 -620,-1015.22 -937.7,-1516.43 -322.06,-505.51 -646.16,-976.38 -964.15,-1467.62 -320.02,-499.4 -646.16,-990.64 -939.69,-1465.58 -299.64,-481.05 -697.12,-1174.1 -823.5,-1363.66 -122.3,-189.57 -57.07,2.04 77.46,244.6 126.38,238.49 383.21,691 682.85,1184.29 295.56,493.28 731.77,1204.67 1080.33,1748.91 348.56,536.09 686.93,1019.18 976.38,1465.7 278.97,442.21 505.46,831.77 695.14,1183.95 50.96,-3.96 101.92,-7.93 152.88,-14.16z" />
  <path id="path157" class="fil0 str0" d="M9608.61 26748.32c22.65,120.6 30.58,238.94 24.35,362.94 -14.16,122.3 -65.11,330.1 -65.11,373.13 2.26,32.84 61.15,-87.76 83.8,-156.84 18.12,-73.61 28.31,-159.11 30.58,-264.99 22.08,91.73 52.66,146.65 107.58,156.84 49.26,3.96 195.91,-81.53 198.17,-91.73 -2.26,-7.93 -157.41,50.96 -198.17,43.03 -44.73,-12.46 -69.08,-53.22 -65.11,-114.37 85.5,-116.07 124.57,-193.64 132.49,-210.06 -1.7,-22.08 -73.04,54.92 -103.62,83.8 -32.84,24.35 -47,52.66 -65.68,77.57 -3.96,-122.3 -11.89,-202.14 -24.35,-246.87 -14.16,-44.73 -32.27,-48.69 -54.92,-12.46l-0.01 0.01z" />
  <path id="path159" class="fil0 str0" d="M10081.4 26850.23c-24.35,137.02 -26.61,234.41 -6.23,293.86 18.68,54.92 59.45,75.31 114.37,61.15 43.03,-16.42 104.18,-73.61 167.03,-163.07 14.16,52.66 39.07,89.46 73.61,126.27 30.58,28.31 118.34,81.53 120.04,73.61 -3.96,-12.46 -103.62,-86.06 -126.27,-132.49 -30.58,-53.22 -22.65,-118.34 -30.58,-163.07 -7.93,-50.96 -18.12,-138.72 -30.58,-114.37 -22.65,22.65 -54.92,195.91 -89.46,252.53 -39.07,55.49 -104.18,75.87 -132.49,77.57 -32.84,-6.23 -49.26,-38.5 -49.26,-89.46 -1.7,-55.49 39.07,-193.64 43.03,-228.18 0,-39.07 -20.38,-36.8 -53.22,5.66l0.01 -0.01z" />
  <line id="path83_0" class="fil3" x1="12394.96" y1="10953.25" x2="12394.94" y2="10953.27" />
  <path id="path83_1" class="fil3" d="M12368.91 11628.17c-16.42,-124.57 -10.76,-346.52 26.05,-674.92" />
  <path id="path83_2" class="fil3" d="M12495.18 11683.09c-73.61,50.96 -118.34,58.89 -126.27,-54.92" />
  <path id="path83_3" class="fil3" d="M12835.47 11326.38c-126.27,95.69 -261.02,303.49 -340.29,356.71" />
  <path id="path83_4" class="fil3" d="M13023.45 11193.68c-65.25,38.71 -127.96,82.59 -187.98,132.7" />
  <path id="path83_5" class="fil3" d="M13226.72 11091.97c-70.21,29.44 -138.01,63 -203.27,101.71" />
  <path id="path83_6" class="fil3" d="M13470.97 11216.61c-73.39,-38.71 -154.5,-79.91 -244.25,-124.64" />
  <path id="path83_7" class="fil3" d="M13668.93 11326.38c-58.88,-34.82 -124.57,-71.06 -197.96,-109.77" />
  <path id="path83_8" class="fil3" d="M13815.15 11436.37c-40.48,-33.12 -87.9,-75.45 -146.22,-109.99" />
  <path id="path83_9" class="fil3" d="M13919.76 11491.15c-30.57,2.26 -64.13,-21.66 -104.61,-54.78" />
  <path id="path83_10" class="fil3" d="M13966.19 11414.5c-8.63,39.99 -19.82,66.46 -46.43,76.65" />
  <path id="path83_11" class="fil3" d="M13997.33 11256.74c-16.42,64.26 -22.51,117.78 -31.14,157.76" />
  <path id="path83_12" class="fil3" d="M14048.08 11030.96c-19.6,86.35 -37.44,160.66 -50.75,225.78" />
  <path id="path83_13" class="fil3" d="M14109.44 10732.99c-20.38,113.24 -41.76,211.63 -61.36,297.97" />
  <line id="path83_14" class="fil3" x1="14324.6" y1="10725.91" x2="14109.44" y2="10732.99" />
  <line id="path83_15" class="fil3" x1="14539.76" y1="10718.83" x2="14324.6" y2="10725.91" />
  <path id="path83_16" class="fil3" d="M14524.48 10866.12c0,-69.29 5.09,-118.7 15.28,-147.29" />
  <path id="path83_17" class="fil3" d="M14539.76 11132.73c-10.19,-108.15 -15.28,-197.32 -15.28,-266.61" />
  <path id="path83_18" class="fil3" d="M14580.24 11561.77c-18.26,-161.51 -31.42,-318.92 -40.48,-429.04" />
  <path id="path83_19" class="fil3" d="M14651.3 12015.45c-29.44,-126.55 -52.8,-292.17 -71.06,-453.68" />
  <path id="path83_20" class="fil3" d="M14750.39 12346.9c-37.79,-97.59 -70.49,-207.17 -99.09,-331.45" />
  <path id="path83_21" class="fil3" d="M14880.05 12606.58c-48.97,-76.44 -91.87,-162.08 -129.66,-259.68" />
  <path id="path83_22" class="fil3" d="M14755.06 12745.17c39.77,-57.05 81.11,-102.92 124.99,-138.59" />
  <path id="path83_23" class="fil3" d="M14639.41 12950.84c37.66,-80.4 75.88,-148.64 115.65,-205.67" />
  <path id="path83_24" class="fil3" d="M14517.95 13233.17c37.93,-104.54 80.69,-201.93 121.46,-282.33" />
  <path id="path83_25" class="fil3" d="M14425.38 13558.39c21.52,-109 54.64,-220.69 92.57,-325.22" />
  <path id="path83_26" class="fil3" d="M14383.13 13875.9c6.16,-106.73 19.89,-211.63 42.25,-317.51" />
  <path id="path83_27" class="fil3" d="M14386.31 14204.44c-7.92,-113.24 -9.34,-221.81 -3.18,-328.54" />
  <path id="path83_28" class="fil3" d="M13950.75 14199.56c138.58,14.51 283.82,17.05 435.56,4.88" />
  <path id="path83_29" class="fil3" d="M13555.11 14122.91c125.14,35.67 257.06,62.14 395.64,76.65" />
  <path id="path83_30" class="fil3" d="M13205.19 13950.14c108.58,67.73 220.26,130.87 349.92,172.77" />
  <path id="path83_31" class="fil3" d="M12873.96 13749.78c117.21,60.3 222.67,132.63 331.23,200.36" />
  <path id="path83_32" class="fil3" d="M12505.85 13582.39c122.51,53.72 247.79,108.22 368.11,167.39" />
  <path id="path83_33" class="fil3" d="M12154.3 13419.68c109.28,56.05 229.04,109 351.55,162.71" />
  <path id="path83_34" class="fil3" d="M11865.89 13228.08c88.82,63.77 179.42,131.58 288.41,191.6" />
  <path id="path83_35" class="fil3" d="M11588.09 13060.7c101.92,43.88 188.98,103.61 277.8,167.38" />
  <path id="path83_36" class="fil3" d="M11257.56 12929.2c111.4,35.39 223.52,84.79 330.53,131.5" />
  <path id="path83_37" class="fil3" d="M10931.28 12881.78c104.19,-9.34 214.88,12.04 326.28,47.42" />
  <path id="path83_38" class="fil3" d="M10624.96 12975.85c97.1,-49.33 201.57,-83.88 306.32,-94.07" />
  <path id="path83_39" class="fil3" d="M10362.8 13158.66c75.3,-69.36 165.06,-133.48 262.16,-182.81" />
  <path id="path83_40" class="fil3" d="M10148.28 13381.39c60.65,-84.57 136.1,-158.47 214.52,-222.73" />
  <path id="path83_41" class="fil3" d="M10022.51 13668.25c19.25,-107.02 65.12,-202.28 125.77,-286.86" />
  <path id="path83_42" class="fil3" d="M10025.91 14042.02c-20.38,-133.27 -22.94,-264.78 -3.4,-373.77" />
  <path id="path83_43" class="fil3" d="M10136.32 14426.41c-51.81,-116.08 -90.03,-251.13 -110.41,-384.39" />
  <path id="path83_44" class="fil3" d="M10342.35 14727.21c-85.14,-93.85 -157.06,-193.79 -206.03,-300.8" />
  <path id="path83_45" class="fil3" d="M10627.79 14991.49c-101.92,-82.66 -200.3,-170.44 -285.44,-264.28" />
  <path id="path83_46" class="fil3" d="M10803.63 15111.37c-65.2,-38.98 -125.87,-79.11 -175.84,-119.88" />
  <path id="path83_47" class="fil3" d="M11006.73 15224.34c-68.15,-36.16 -137.9,-74 -203.1,-112.97" />
  <path id="path83_48" class="fil3" d="M11200.29 15327.34c-58.83,-32.32 -125.41,-66.83 -193.56,-103" />
  <path id="path83_49" class="fil3" d="M11347.45 15417.28c-37.22,-27.46 -88.33,-57.61 -147.16,-89.94" />
  <path id="path83_50" class="fil3" d="M11444.88 15490.28c-27.67,-22.46 -60.76,-46.95 -97.43,-73" />
  <path id="path83_51" class="fil3" d="M11509.81 15551.12c-15,-17.94 -37.26,-38.38 -64.93,-60.84" />
  <path id="path83_52" class="fil3" d="M11531.22 15596.99c1.34,-12.47 -6.41,-27.94 -21.41,-45.87" />
  <path id="path83_53" class="fil3" d="M11498.06 15625.08c21.38,-6.08 31.82,-15.6 33.16,-28.09" />
  <path id="path83_54" class="fil3" d="M11381.55 15631.26c50.52,0.22 91.04,-2.07 116.51,-6.18" />
  <path id="path83_55" class="fil3" d="M11205.05 15622.32c65.47,5.98 125.98,8.72 176.5,8.94" />
  <path id="path83_56" class="fil3" d="M10998.83 15593.95c70.33,13.17 140.77,22.4 206.22,28.37" />
  <path id="path83_57" class="fil3" d="M10793.13 15541.85c65.12,21.8 135.37,38.93 205.7,52.1" />
  <path id="path83_58" class="fil3" d="M10581.25 15458.38c73.9,31.9 145.64,59.98 211.88,83.47" />
  <path id="path83_59" class="fil3" d="M10356.37 15351.88c74.91,38.85 150.99,74.6 224.88,106.5" />
  <path id="path83_60" class="fil3" d="M10138.39 15226.7c69.3,44.36 143.07,86.33 217.98,125.18" />
  <path id="path83_61" class="fil3" d="M9947.21 15087.18c57.04,48.41 121.88,95.16 191.18,139.52" />
  <path id="path83_62" class="fil3" d="M9785.12 14932.23c49.69,53.48 103.48,104.99 162.09,154.95" />
  <path id="path83_63" class="fil3" d="M9647.62 14765.29c42.21,57.96 87.81,113.45 137.5,166.94" />
  <path id="path83_64" class="fil3" d="M9530.39 14583.48c36.17,63.39 75.01,123.85 117.23,181.81" />
  <path id="path83_65" class="fil3" d="M9429.13 14383.95c31.56,69.78 65.09,136.14 101.26,199.53" />
  <path id="path83_66" class="fil3" d="M9336.1 14156.35c29.15,80.27 60.89,157.25 93.03,227.6" />
  <path id="path83_67" class="fil3" d="M9258.63 13908.9c21.76,83.58 48.32,167.18 77.47,247.45" />
  <path id="path83_68" class="fil3" d="M9209.93 13661.45c9.97,80.27 26.94,163.87 48.7,247.45" />
  <path id="path83_69" class="fil3" d="M9203.21 13433.85c-6.23,70.35 -3.25,147.32 6.72,227.6" />
  <path id="path83_70" class="fil3" d="M9238.33 13230.25c-18.98,65.19 -31.16,132.82 -35.12,203.6" />
  <path id="path83_71" class="fil3" d="M9314.33 13041.25c-31.21,61.04 -57.01,123.81 -76,189" />
  <path id="path83_72" class="fil3" d="M9422.81 12862.55c-40.64,58.33 -77.28,117.66 -108.48,178.7" />
  <path id="path83_73" class="fil3" d="M9555.39 12689.85c-47.28,57.04 -91.94,114.38 -132.58,172.7" />
  <path id="path83_74" class="fil3" d="M9716.21 12515.95c-59.21,56.94 -113.4,114.87 -160.82,173.9" />
  <path id="path83_75" class="fil3" d="M9907.22 12348c-67.55,55.06 -131.8,111.02 -191.01,167.95" />
  <path id="path83_76" class="fil3" d="M10118.09 12185.35c-72.45,53.4 -143.32,107.59 -210.87,162.65" />
  <path id="path83_77" class="fil3" d="M10338.46 12027.38c-73.89,51.95 -147.92,104.57 -220.37,157.97" />
  <path id="path83_78" class="fil3" d="M10560.22 11869.64c-76.02,51.6 -150,104.23 -221.76,157.74" />
  <path id="path83_79" class="fil3" d="M10794.33 11718.01c-80,49.43 -158.09,100.03 -234.11,151.63" />
  <path id="path83_80" class="fil3" d="M11040.02 11573.28c-83.73,47 -165.68,95.3 -245.69,144.73" />
  <path id="path83_81" class="fil3" d="M11296.49 11436.25c-87.19,44.3 -172.73,90.03 -256.47,137.03" />
  <path id="path83_82" class="fil3" d="M11557.79 11304.08c-88.25,42.8 -175.23,86.87 -261.3,132.17" />
  <path id="path83_83" class="fil3" d="M11826.61 11179.47c-91.08,40.26 -180.59,81.81 -268.82,124.61" />
  <path id="path83_84" class="fil3" d="M12104.99 11062.5c-94.61,37.71 -187.3,76.7 -278.38,116.97" />
  <path id="path83_85" class="fil3" d="M12394.94 10953.27c-98.8,35.1 -195.34,71.52 -289.95,109.23" />
 </g>
</svg>